<svg width="233" height="160" viewBox="0 0 233 160" fill="none" xmlns="http://www.w3.org/2000/svg">
<path d="M93.5833 16.6667L79 29.1667L93.5833 43.75" stroke="#ECEDE2" stroke-width="10" stroke-linecap="round" stroke-linejoin="round"/>
<path d="M79 29.1667H126.904C141.244 29.1667 153.421 40.875 153.979 55.2083C154.571 70.3542 142.056 83.3333 126.904 83.3333H91.4958" stroke="#ECEDE2" stroke-width="10" stroke-linecap="round" stroke-linejoin="round"/>
<path d="M7.08637 139.405C6.28637 139.405 5.53137 139.355 4.82137 139.255C4.12137 139.155 3.49137 139.03 2.93137 138.88C2.37137 138.72 1.89137 138.565 1.49137 138.415L1.08637 134.305C1.81637 134.615 2.63137 134.885 3.53137 135.115C4.43137 135.335 5.40637 135.445 6.45637 135.445C7.34637 135.445 8.04137 135.365 8.54137 135.205C9.04137 135.045 9.39137 134.81 9.59137 134.5C9.80137 134.18 9.90637 133.795 9.90637 133.345V133.18C9.90637 132.73 9.80637 132.36 9.60637 132.07C9.41637 131.78 9.10137 131.565 8.66137 131.425C8.23137 131.275 7.64637 131.195 6.90637 131.185L3.44137 131.095V127.45L6.90637 127.36C7.62637 127.34 8.20137 127.255 8.63137 127.105C9.06137 126.955 9.37137 126.74 9.56137 126.46C9.75137 126.18 9.84637 125.83 9.84637 125.41V125.275C9.84637 124.625 9.61637 124.14 9.15637 123.82C8.69637 123.49 7.86137 123.325 6.65137 123.325C5.60137 123.325 4.60637 123.445 3.66637 123.685C2.72637 123.915 1.91637 124.165 1.23637 124.435L1.62637 120.61C2.31637 120.29 3.14637 120.015 4.11637 119.785C5.09637 119.555 6.23637 119.44 7.53637 119.44C9.91637 119.44 11.6864 119.875 12.8464 120.745C14.0164 121.615 14.6014 122.86 14.6014 124.48V124.78C14.6014 125.58 14.4664 126.27 14.1964 126.85C13.9364 127.42 13.5264 127.875 12.9664 128.215C12.4164 128.555 11.7014 128.785 10.8214 128.905V129.55L10.5664 129.04C12.0864 129.25 13.1564 129.715 13.7764 130.435C14.4064 131.155 14.7214 132.16 14.7214 133.45V133.84C14.7214 135.56 14.0964 136.92 12.8464 137.92C11.6064 138.91 9.68637 139.405 7.08637 139.405ZM27.7043 139.42C25.1043 139.42 23.1343 138.73 21.7943 137.35C20.4643 135.97 19.7993 133.945 19.7993 131.275V127.54C19.7993 124.89 20.4643 122.875 21.7943 121.495C23.1243 120.115 25.0943 119.425 27.7043 119.425C30.3143 119.425 32.2843 120.115 33.6143 121.495C34.9543 122.875 35.6243 124.89 35.6243 127.54V131.275C35.6243 133.945 34.9543 135.97 33.6143 137.35C32.2843 138.73 30.3143 139.42 27.7043 139.42ZM27.7043 135.55C28.7943 135.55 29.5893 135.205 30.0893 134.515C30.5893 133.825 30.8393 132.815 30.8393 131.485V127.36C30.8393 126.02 30.5893 125.01 30.0893 124.33C29.5893 123.64 28.7943 123.295 27.7043 123.295C26.6143 123.295 25.8193 123.64 25.3193 124.33C24.8293 125.01 24.5843 126.02 24.5843 127.36V131.485C24.5843 132.815 24.8343 133.825 25.3343 134.515C25.8443 135.205 26.6343 135.55 27.7043 135.55ZM55.2586 139.345C53.5386 139.345 52.2336 138.78 51.3436 137.65C50.4636 136.52 50.0236 134.84 50.0236 132.61V130.795C50.0236 128.525 50.4686 126.81 51.3586 125.65C52.2486 124.49 53.5936 123.91 55.3936 123.91C56.2736 123.91 57.0086 124.055 57.5986 124.345C58.1886 124.635 58.6586 125.045 59.0086 125.575C59.3686 126.105 59.6186 126.73 59.7586 127.45H61.0036L59.9236 130.42C59.9036 129.81 59.7836 129.295 59.5636 128.875C59.3436 128.455 59.0336 128.135 58.6336 127.915C58.2436 127.685 57.7686 127.57 57.2086 127.57C56.3686 127.57 55.7286 127.815 55.2886 128.305C54.8486 128.795 54.6286 129.53 54.6286 130.51V132.625C54.6286 133.595 54.8486 134.33 55.2886 134.83C55.7386 135.32 56.3986 135.565 57.2686 135.565C57.7286 135.565 58.1386 135.48 58.4986 135.31C58.8686 135.14 59.1786 134.905 59.4286 134.605C59.6886 134.305 59.8786 133.965 59.9986 133.585L61.1236 135.805H59.8336C59.6836 136.465 59.4336 137.065 59.0836 137.605C58.7336 138.145 58.2486 138.57 57.6286 138.88C57.0086 139.19 56.2186 139.345 55.2586 139.345ZM59.8636 139L59.9986 135.265L59.9236 134.485V128.515V127.87L59.8636 123.595V119.185H64.4236V139H59.8636ZM78.9408 139L79.0758 135.31L78.9708 135.085V130.48L78.9408 129.88C78.9408 129.06 78.7008 128.455 78.2208 128.065C77.7408 127.675 76.9358 127.48 75.8058 127.48C74.8158 127.48 73.8758 127.605 72.9858 127.855C72.0958 128.105 71.2558 128.39 70.4658 128.71L70.8558 125.155C71.3258 124.935 71.8508 124.73 72.4308 124.54C73.0208 124.34 73.6708 124.18 74.3808 124.06C75.0908 123.94 75.8508 123.88 76.6608 123.88C77.9508 123.88 79.0308 124.03 79.9008 124.33C80.7708 124.63 81.4658 125.055 81.9858 125.605C82.5058 126.155 82.8808 126.815 83.1108 127.585C83.3408 128.345 83.4558 129.185 83.4558 130.105V139H78.9408ZM74.2458 139.345C72.7758 139.345 71.6608 138.975 70.9008 138.235C70.1408 137.495 69.7608 136.44 69.7608 135.07V134.665C69.7608 133.215 70.2058 132.145 71.0958 131.455C71.9958 130.755 73.4208 130.28 75.3708 130.03L79.3308 129.505L79.6008 132.265L76.0908 132.775C75.3808 132.865 74.8808 133.03 74.5908 133.27C74.3008 133.51 74.1558 133.865 74.1558 134.335V134.44C74.1558 134.89 74.3008 135.25 74.5908 135.52C74.8808 135.78 75.3458 135.91 75.9858 135.91C76.5458 135.91 77.0258 135.825 77.4258 135.655C77.8358 135.485 78.1708 135.265 78.4308 134.995C78.6908 134.715 78.8858 134.405 79.0158 134.065L79.6608 135.925H78.9108C78.7508 136.565 78.5008 137.145 78.1608 137.665C77.8308 138.185 77.3508 138.595 76.7208 138.895C76.0908 139.195 75.2658 139.345 74.2458 139.345ZM97.1602 135.325L94.7002 136.39L98.0152 124.255H102.71L96.6952 144.16H92.1052L94.4002 136.66L96.5602 138.37H91.4752L87.4852 124.255H92.2102L94.7602 135.325H97.1602ZM112.742 139.36C111.572 139.36 110.517 139.255 109.577 139.045C108.637 138.845 107.832 138.61 107.162 138.34L106.772 134.485C107.542 134.805 108.392 135.095 109.322 135.355C110.262 135.605 111.277 135.73 112.367 135.73C113.237 135.73 113.852 135.64 114.212 135.46C114.582 135.27 114.767 134.98 114.767 134.59V134.53C114.767 134.26 114.672 134.04 114.482 133.87C114.302 133.69 113.982 133.53 113.522 133.39C113.072 133.25 112.437 133.085 111.617 132.895C110.387 132.605 109.412 132.265 108.692 131.875C107.972 131.475 107.457 130.99 107.147 130.42C106.847 129.84 106.697 129.155 106.697 128.365V128.245C106.697 126.785 107.217 125.695 108.257 124.975C109.297 124.245 110.827 123.88 112.847 123.88C113.987 123.88 115.012 123.985 115.922 124.195C116.832 124.405 117.597 124.655 118.217 124.945L118.607 128.53C117.887 128.21 117.082 127.945 116.192 127.735C115.312 127.525 114.387 127.42 113.417 127.42C112.827 127.42 112.362 127.46 112.022 127.54C111.692 127.62 111.457 127.735 111.317 127.885C111.187 128.035 111.122 128.22 111.122 128.44V128.485C111.122 128.725 111.202 128.93 111.362 129.1C111.522 129.27 111.812 129.43 112.232 129.58C112.662 129.73 113.277 129.9 114.077 130.09C115.317 130.36 116.317 130.67 117.077 131.02C117.837 131.36 118.392 131.805 118.742 132.355C119.092 132.895 119.267 133.615 119.267 134.515V134.65C119.267 136.24 118.732 137.425 117.662 138.205C116.592 138.975 114.952 139.36 112.742 139.36ZM138.09 130.72L136.83 127.93H137.91C138.15 126.71 138.615 125.755 139.305 125.065C140.005 124.365 140.99 124.015 142.26 124.015C142.48 124.015 142.68 124.03 142.86 124.06C143.05 124.09 143.23 124.125 143.4 124.165L143.625 128.8C143.415 128.74 143.17 128.7 142.89 128.68C142.61 128.65 142.325 128.635 142.035 128.635C141.055 128.635 140.23 128.82 139.56 129.19C138.89 129.55 138.4 130.06 138.09 130.72ZM133.59 139V124.255H137.91L137.715 128.965L138.18 129.025V139H133.59ZM155.716 139.375C153.036 139.375 151.056 138.78 149.776 137.59C148.496 136.39 147.856 134.645 147.856 132.355V130.825C147.856 128.565 148.456 126.835 149.656 125.635C150.856 124.425 152.601 123.82 154.891 123.82C156.431 123.82 157.711 124.085 158.731 124.615C159.761 125.135 160.531 125.88 161.041 126.85C161.561 127.82 161.821 128.985 161.821 130.345V130.84C161.821 131.22 161.801 131.61 161.761 132.01C161.731 132.4 161.686 132.765 161.626 133.105H157.486C157.526 132.525 157.551 131.98 157.561 131.47C157.571 130.95 157.576 130.48 157.576 130.06C157.576 129.45 157.481 128.94 157.291 128.53C157.101 128.11 156.806 127.79 156.406 127.57C156.016 127.35 155.511 127.24 154.891 127.24C153.971 127.24 153.296 127.49 152.866 127.99C152.446 128.48 152.236 129.18 152.236 130.09V131.44L152.266 131.935V132.985C152.266 133.365 152.326 133.725 152.446 134.065C152.576 134.405 152.796 134.705 153.106 134.965C153.426 135.215 153.861 135.415 154.411 135.565C154.971 135.705 155.681 135.775 156.541 135.775C157.451 135.775 158.326 135.69 159.166 135.52C160.006 135.34 160.811 135.1 161.581 134.8L161.206 138.25C160.526 138.6 159.721 138.875 158.791 139.075C157.861 139.275 156.836 139.375 155.716 139.375ZM150.286 133.105V130.27H160.696V133.105H150.286ZM173.287 139.33C171.977 139.33 170.932 139.135 170.152 138.745C169.382 138.345 168.827 137.75 168.487 136.96C168.147 136.17 167.977 135.195 167.977 134.035V125.8H172.537V133.3C172.537 134.02 172.697 134.55 173.017 134.89C173.347 135.22 173.957 135.385 174.847 135.385C175.337 135.385 175.822 135.33 176.302 135.22C176.782 135.11 177.217 134.97 177.607 134.8L177.217 138.595C176.707 138.815 176.117 138.99 175.447 139.12C174.787 139.26 174.067 139.33 173.287 139.33ZM165.997 127.915V124.315H177.472L177.067 127.915H165.997ZM168.037 124.645L168.022 120.835L172.567 120.4L172.402 124.645H168.037ZM186.83 124.255V132.925C186.83 133.465 186.9 133.935 187.04 134.335C187.18 134.725 187.415 135.03 187.745 135.25C188.075 135.46 188.525 135.565 189.095 135.565C189.575 135.565 189.99 135.48 190.34 135.31C190.7 135.14 191 134.91 191.24 134.62C191.49 134.33 191.675 134.01 191.795 133.66L192.5 135.805H191.72C191.56 136.465 191.295 137.065 190.925 137.605C190.565 138.145 190.065 138.57 189.425 138.88C188.795 139.19 187.985 139.345 186.995 139.345C185.905 139.345 185.005 139.135 184.295 138.715C183.595 138.285 183.075 137.65 182.735 136.81C182.405 135.97 182.24 134.92 182.24 133.66V124.255H186.83ZM196.31 124.255V139H191.75L191.9 135.31L191.72 134.89V124.255H196.31ZM206.867 130.72L205.607 127.93H206.687C206.927 126.71 207.392 125.755 208.082 125.065C208.782 124.365 209.767 124.015 211.037 124.015C211.257 124.015 211.457 124.03 211.637 124.06C211.827 124.09 212.007 124.125 212.177 124.165L212.402 128.8C212.192 128.74 211.947 128.7 211.667 128.68C211.387 128.65 211.102 128.635 210.812 128.635C209.832 128.635 209.007 128.82 208.337 129.19C207.667 129.55 207.177 130.06 206.867 130.72ZM202.367 139V124.255H206.687L206.492 128.965L206.957 129.025V139H202.367ZM226.741 139V130.33C226.741 129.79 226.671 129.325 226.531 128.935C226.391 128.535 226.156 128.23 225.826 128.02C225.496 127.81 225.046 127.705 224.476 127.705C224.006 127.705 223.591 127.79 223.231 127.96C222.871 128.12 222.566 128.345 222.316 128.635C222.076 128.915 221.896 129.235 221.776 129.595L221.071 127.45H221.851C222.011 126.78 222.271 126.18 222.631 125.65C223.001 125.12 223.506 124.7 224.146 124.39C224.786 124.07 225.596 123.91 226.576 123.91C227.676 123.91 228.576 124.125 229.276 124.555C229.976 124.975 230.491 125.605 230.821 126.445C231.161 127.285 231.331 128.335 231.331 129.595V139H226.741ZM217.261 139V124.255H221.821L221.671 127.945L221.851 128.38V139H217.261Z" fill="#ECEDE2"/>
</svg>
