<svg width="327" height="180" viewBox="0 0 327 180" fill="none" xmlns="http://www.w3.org/2000/svg">
<g clip-path="url(#clip0_17_1050)">
<path d="M147.621 8.80859C151.039 3.32031 157.055 0 163.5 0C169.946 0 175.961 3.32031 179.379 8.80859L186.918 20.8594L192.192 17.8125C193.832 16.8555 195.883 16.9922 197.387 18.1445C198.891 19.2969 199.555 21.25 199.067 23.0859L194.496 40.1563C193.832 42.6563 191.254 44.1406 188.754 43.4766L171.684 38.9063C169.848 38.418 168.5 36.875 168.246 35C167.992 33.125 168.91 31.2695 170.551 30.332L176.098 27.1289L168.774 15.4297C167.641 13.6133 165.649 12.5 163.5 12.5C161.352 12.5 159.36 13.6133 158.227 15.4297L154.809 20.8984C153.012 23.7891 149.223 24.707 146.293 22.9492C143.305 21.1523 142.348 17.2461 144.203 14.2773L147.621 8.80859ZM197.387 49.1992C200.317 47.4414 204.106 48.3594 205.903 51.25L210.668 58.8867C212.504 61.8359 213.481 65.2149 213.52 68.6914C213.578 79.0625 205.18 87.5195 194.809 87.5195L176 87.5V93.75C176 95.6445 174.867 97.3633 173.11 98.0859C171.352 98.8086 169.34 98.418 167.992 97.0703L155.492 84.5703C153.657 82.7344 153.657 79.7656 155.492 77.9492L167.992 65.4492C169.34 64.1016 171.352 63.7109 173.11 64.4336C174.867 65.1562 176 66.875 176 68.7695V75.0195H194.789C198.227 75.0195 201.02 72.207 201 68.7695C201 67.6172 200.668 66.4844 200.063 65.5078L195.297 57.8711C193.442 54.9023 194.379 50.9961 197.387 49.1992ZM126.176 43.1445L120.532 39.8828C118.891 38.9258 117.973 37.0898 118.227 35.2148C118.481 33.3398 119.828 31.7969 121.664 31.3086L138.735 26.7383C141.235 26.0742 143.813 27.5586 144.477 30.0586L149.047 47.1094C149.535 48.9453 148.871 50.8789 147.367 52.0508C145.864 53.2227 143.813 53.3399 142.172 52.3828L136.996 49.3945L126.938 65.4883C126.332 66.4648 126 67.5977 126 68.75C125.981 72.1875 128.774 75 132.211 75H138.5C141.957 75 144.75 77.793 144.75 81.25C144.75 84.707 141.957 87.5 138.5 87.5H132.211C121.84 87.5 113.442 79.0625 113.5 68.6719C113.52 65.1953 114.496 61.8164 116.352 58.8672L126.176 43.1445Z" fill="#ECEDE2"/>
</g>
<path d="M10.4452 159V148.02L10.6252 143.04H10.2652L5.70516 151.74V153.6L3.92016 151.995H17.0452V155.805H1.17516V151.47L7.50516 139.83H14.9002V159H10.4452ZM29.6838 159.42C27.0838 159.42 25.1138 158.73 23.7738 157.35C22.4438 155.97 21.7788 153.945 21.7788 151.275V147.54C21.7788 144.89 22.4438 142.875 23.7738 141.495C25.1038 140.115 27.0738 139.425 29.6838 139.425C32.2938 139.425 34.2638 140.115 35.5938 141.495C36.9338 142.875 37.6038 144.89 37.6038 147.54V151.275C37.6038 153.945 36.9338 155.97 35.5938 157.35C34.2638 158.73 32.2938 159.42 29.6838 159.42ZM29.6838 155.55C30.7738 155.55 31.5688 155.205 32.0688 154.515C32.5688 153.825 32.8188 152.815 32.8188 151.485V147.36C32.8188 146.02 32.5688 145.01 32.0688 144.33C31.5688 143.64 30.7738 143.295 29.6838 143.295C28.5938 143.295 27.7988 143.64 27.2988 144.33C26.8088 145.01 26.5638 146.02 26.5638 147.36V151.485C26.5638 152.815 26.8138 153.825 27.3138 154.515C27.8238 155.205 28.6138 155.55 29.6838 155.55ZM45.8051 159L57.6851 139.83H61.4351L49.6001 159H45.8051ZM59.8751 159.48C58.3951 159.48 57.2651 159.09 56.4851 158.31C55.7051 157.52 55.3151 156.38 55.3151 154.89V153.84C55.3151 152.37 55.7051 151.245 56.4851 150.465C57.2751 149.675 58.4051 149.28 59.8751 149.28C61.3551 149.28 62.4851 149.67 63.2651 150.45C64.0551 151.23 64.4501 152.36 64.4501 153.84V154.89C64.4501 156.37 64.0551 157.505 63.2651 158.295C62.4851 159.085 61.3551 159.48 59.8751 159.48ZM59.8751 156.87C60.3551 156.87 60.7151 156.72 60.9551 156.42C61.1951 156.12 61.3151 155.67 61.3151 155.07V153.69C61.3151 153.09 61.1951 152.64 60.9551 152.34C60.7151 152.03 60.3551 151.875 59.8751 151.875C59.3951 151.875 59.0351 152.03 58.7951 152.34C58.5651 152.64 58.4501 153.09 58.4501 153.69V155.07C58.4501 155.67 58.5701 156.12 58.8101 156.42C59.0501 156.72 59.4051 156.87 59.8751 156.87ZM47.3351 149.565C45.8551 149.565 44.7201 149.175 43.9301 148.395C43.1501 147.615 42.7601 146.48 42.7601 144.99V143.94C42.7601 142.46 43.1501 141.33 43.9301 140.55C44.7201 139.76 45.8551 139.365 47.3351 139.365C48.8151 139.365 49.9451 139.76 50.7251 140.55C51.5151 141.33 51.9101 142.46 51.9101 143.94V144.99C51.9101 146.46 51.5151 147.59 50.7251 148.38C49.9451 149.17 48.8151 149.565 47.3351 149.565ZM47.3351 146.97C47.8151 146.97 48.1701 146.82 48.4001 146.52C48.6401 146.22 48.7601 145.77 48.7601 145.17V143.775C48.7601 143.185 48.6401 142.74 48.4001 142.44C48.1701 142.13 47.8151 141.975 47.3351 141.975C46.8551 141.975 46.4951 142.13 46.2551 142.44C46.0151 142.74 45.8951 143.185 45.8951 143.775V145.17C45.8951 145.77 46.0151 146.22 46.2551 146.52C46.4951 146.82 46.8551 146.97 47.3351 146.97ZM83.5378 150.72L82.2778 147.93H83.3578C83.5978 146.71 84.0628 145.755 84.7528 145.065C85.4528 144.365 86.4378 144.015 87.7078 144.015C87.9278 144.015 88.1278 144.03 88.3078 144.06C88.4978 144.09 88.6778 144.125 88.8478 144.165L89.0728 148.8C88.8628 148.74 88.6178 148.7 88.3378 148.68C88.0578 148.65 87.7728 148.635 87.4828 148.635C86.5028 148.635 85.6778 148.82 85.0078 149.19C84.3378 149.55 83.8478 150.06 83.5378 150.72ZM79.0378 159V144.255H83.3578L83.1628 148.965L83.6278 149.025V159H79.0378ZM101.164 159.375C98.4845 159.375 96.5045 158.78 95.2245 157.59C93.9445 156.39 93.3045 154.645 93.3045 152.355V150.825C93.3045 148.565 93.9045 146.835 95.1045 145.635C96.3045 144.425 98.0495 143.82 100.339 143.82C101.879 143.82 103.159 144.085 104.179 144.615C105.209 145.135 105.979 145.88 106.489 146.85C107.009 147.82 107.269 148.985 107.269 150.345V150.84C107.269 151.22 107.249 151.61 107.209 152.01C107.179 152.4 107.134 152.765 107.074 153.105H102.934C102.974 152.525 102.999 151.98 103.009 151.47C103.019 150.95 103.024 150.48 103.024 150.06C103.024 149.45 102.929 148.94 102.739 148.53C102.549 148.11 102.254 147.79 101.854 147.57C101.464 147.35 100.959 147.24 100.339 147.24C99.4195 147.24 98.7445 147.49 98.3145 147.99C97.8945 148.48 97.6845 149.18 97.6845 150.09V151.44L97.7145 151.935V152.985C97.7145 153.365 97.7745 153.725 97.8945 154.065C98.0245 154.405 98.2445 154.705 98.5545 154.965C98.8745 155.215 99.3095 155.415 99.8595 155.565C100.419 155.705 101.129 155.775 101.989 155.775C102.899 155.775 103.774 155.69 104.614 155.52C105.454 155.34 106.259 155.1 107.029 154.8L106.654 158.25C105.974 158.6 105.169 158.875 104.239 159.075C103.309 159.275 102.284 159.375 101.164 159.375ZM95.7345 153.105V150.27H106.144V153.105H95.7345ZM119.113 159.39C116.773 159.39 115.038 158.775 113.908 157.545C112.778 156.315 112.213 154.585 112.213 152.355V150.825C112.213 148.635 112.778 146.925 113.908 145.695C115.038 144.465 116.768 143.85 119.098 143.85C119.698 143.85 120.258 143.895 120.778 143.985C121.298 144.065 121.778 144.18 122.218 144.33C122.658 144.48 123.043 144.64 123.373 144.81L123.748 148.605C123.258 148.325 122.718 148.095 122.128 147.915C121.538 147.725 120.873 147.63 120.133 147.63C118.973 147.63 118.133 147.91 117.613 148.47C117.093 149.03 116.833 149.84 116.833 150.9V152.175C116.833 153.255 117.108 154.085 117.658 154.665C118.208 155.245 119.068 155.535 120.238 155.535C120.968 155.535 121.623 155.45 122.203 155.28C122.793 155.1 123.353 154.87 123.883 154.59L123.523 158.4C123.003 158.68 122.363 158.915 121.603 159.105C120.843 159.295 120.013 159.39 119.113 159.39ZM137.571 155.325L135.111 156.39L138.426 144.255H143.121L137.106 164.16H132.516L134.811 156.66L136.971 158.37H131.886L127.896 144.255H132.621L135.171 155.325H137.571ZM153.824 159.39C151.484 159.39 149.749 158.775 148.619 157.545C147.489 156.315 146.924 154.585 146.924 152.355V150.825C146.924 148.635 147.489 146.925 148.619 145.695C149.749 144.465 151.479 143.85 153.809 143.85C154.409 143.85 154.969 143.895 155.489 143.985C156.009 144.065 156.489 144.18 156.929 144.33C157.369 144.48 157.754 144.64 158.084 144.81L158.459 148.605C157.969 148.325 157.429 148.095 156.839 147.915C156.249 147.725 155.584 147.63 154.844 147.63C153.684 147.63 152.844 147.91 152.324 148.47C151.804 149.03 151.544 149.84 151.544 150.9V152.175C151.544 153.255 151.819 154.085 152.369 154.665C152.919 155.245 153.779 155.535 154.949 155.535C155.679 155.535 156.334 155.45 156.914 155.28C157.504 155.1 158.064 154.87 158.594 154.59L158.234 158.4C157.714 158.68 157.074 158.915 156.314 159.105C155.554 159.295 154.724 159.39 153.824 159.39ZM163.897 159V139.185H168.487V159H163.897ZM181.877 159.375C179.197 159.375 177.217 158.78 175.937 157.59C174.657 156.39 174.017 154.645 174.017 152.355V150.825C174.017 148.565 174.617 146.835 175.817 145.635C177.017 144.425 178.762 143.82 181.052 143.82C182.592 143.82 183.872 144.085 184.892 144.615C185.922 145.135 186.692 145.88 187.202 146.85C187.722 147.82 187.982 148.985 187.982 150.345V150.84C187.982 151.22 187.962 151.61 187.922 152.01C187.892 152.4 187.847 152.765 187.787 153.105H183.647C183.687 152.525 183.712 151.98 183.722 151.47C183.732 150.95 183.737 150.48 183.737 150.06C183.737 149.45 183.642 148.94 183.452 148.53C183.262 148.11 182.967 147.79 182.567 147.57C182.177 147.35 181.672 147.24 181.052 147.24C180.132 147.24 179.457 147.49 179.027 147.99C178.607 148.48 178.397 149.18 178.397 150.09V151.44L178.427 151.935V152.985C178.427 153.365 178.487 153.725 178.607 154.065C178.737 154.405 178.957 154.705 179.267 154.965C179.587 155.215 180.022 155.415 180.572 155.565C181.132 155.705 181.842 155.775 182.702 155.775C183.612 155.775 184.487 155.69 185.327 155.52C186.167 155.34 186.972 155.1 187.742 154.8L187.367 158.25C186.687 158.6 185.882 158.875 184.952 159.075C184.022 159.275 182.997 159.375 181.877 159.375ZM176.447 153.105V150.27H186.857V153.105H176.447ZM198.25 159.345C196.53 159.345 195.225 158.78 194.335 157.65C193.455 156.52 193.015 154.84 193.015 152.61V150.795C193.015 148.525 193.46 146.81 194.35 145.65C195.24 144.49 196.585 143.91 198.385 143.91C199.265 143.91 200 144.055 200.59 144.345C201.18 144.635 201.65 145.045 202 145.575C202.36 146.105 202.61 146.73 202.75 147.45H203.995L202.915 150.42C202.895 149.81 202.775 149.295 202.555 148.875C202.335 148.455 202.025 148.135 201.625 147.915C201.235 147.685 200.76 147.57 200.2 147.57C199.36 147.57 198.72 147.815 198.28 148.305C197.84 148.795 197.62 149.53 197.62 150.51V152.625C197.62 153.595 197.84 154.33 198.28 154.83C198.73 155.32 199.39 155.565 200.26 155.565C200.72 155.565 201.13 155.48 201.49 155.31C201.86 155.14 202.17 154.905 202.42 154.605C202.68 154.305 202.87 153.965 202.99 153.585L204.115 155.805H202.825C202.675 156.465 202.425 157.065 202.075 157.605C201.725 158.145 201.24 158.57 200.62 158.88C200 159.19 199.21 159.345 198.25 159.345ZM202.855 159L202.99 155.265L202.915 154.485V148.515V147.87L202.855 143.595V139.185H207.415V159H202.855ZM231.625 159.345C230.745 159.345 230.005 159.2 229.405 158.91C228.805 158.62 228.325 158.21 227.965 157.68C227.615 157.14 227.365 156.515 227.215 155.805H226.03L227.11 152.715C227.13 153.325 227.245 153.84 227.455 154.26C227.675 154.68 227.985 155.005 228.385 155.235C228.795 155.455 229.28 155.565 229.84 155.565C230.68 155.565 231.315 155.32 231.745 154.83C232.185 154.33 232.405 153.59 232.405 152.61V150.51C232.405 149.53 232.19 148.795 231.76 148.305C231.34 147.815 230.71 147.57 229.87 147.57C229.4 147.57 228.97 147.66 228.58 147.84C228.2 148.02 227.875 148.26 227.605 148.56C227.345 148.85 227.155 149.185 227.035 149.565L225.985 147.45H227.2C227.35 146.79 227.6 146.195 227.95 145.665C228.3 145.125 228.785 144.7 229.405 144.39C230.025 144.07 230.815 143.91 231.775 143.91C233.495 143.91 234.795 144.475 235.675 145.605C236.565 146.725 237.01 148.41 237.01 150.66V152.46C237.01 154.73 236.565 156.445 235.675 157.605C234.795 158.765 233.445 159.345 231.625 159.345ZM222.61 164.16V144.255H227.17L227.02 148.23L227.11 148.755V154.425L227.05 155.205L227.17 159.15V164.16H222.61ZM242.617 159V139.185H247.207V159H242.617ZM261.723 159L261.858 155.31L261.753 155.085V150.48L261.723 149.88C261.723 149.06 261.483 148.455 261.003 148.065C260.523 147.675 259.718 147.48 258.588 147.48C257.598 147.48 256.658 147.605 255.768 147.855C254.878 148.105 254.038 148.39 253.248 148.71L253.638 145.155C254.108 144.935 254.633 144.73 255.213 144.54C255.803 144.34 256.453 144.18 257.163 144.06C257.873 143.94 258.633 143.88 259.443 143.88C260.733 143.88 261.813 144.03 262.683 144.33C263.553 144.63 264.248 145.055 264.768 145.605C265.288 146.155 265.663 146.815 265.893 147.585C266.123 148.345 266.238 149.185 266.238 150.105V159H261.723ZM257.028 159.345C255.558 159.345 254.443 158.975 253.683 158.235C252.923 157.495 252.543 156.44 252.543 155.07V154.665C252.543 153.215 252.988 152.145 253.878 151.455C254.778 150.755 256.203 150.28 258.153 150.03L262.113 149.505L262.383 152.265L258.873 152.775C258.163 152.865 257.663 153.03 257.373 153.27C257.083 153.51 256.938 153.865 256.938 154.335V154.44C256.938 154.89 257.083 155.25 257.373 155.52C257.663 155.78 258.128 155.91 258.768 155.91C259.328 155.91 259.808 155.825 260.208 155.655C260.618 155.485 260.953 155.265 261.213 154.995C261.473 154.715 261.668 154.405 261.798 154.065L262.443 155.925H261.693C261.533 156.565 261.283 157.145 260.943 157.665C260.613 158.185 260.133 158.595 259.503 158.895C258.873 159.195 258.048 159.345 257.028 159.345ZM277.319 159.36C276.149 159.36 275.094 159.255 274.154 159.045C273.214 158.845 272.409 158.61 271.739 158.34L271.349 154.485C272.119 154.805 272.969 155.095 273.899 155.355C274.839 155.605 275.854 155.73 276.944 155.73C277.814 155.73 278.429 155.64 278.789 155.46C279.159 155.27 279.344 154.98 279.344 154.59V154.53C279.344 154.26 279.249 154.04 279.059 153.87C278.879 153.69 278.559 153.53 278.099 153.39C277.649 153.25 277.014 153.085 276.194 152.895C274.964 152.605 273.989 152.265 273.269 151.875C272.549 151.475 272.034 150.99 271.724 150.42C271.424 149.84 271.274 149.155 271.274 148.365V148.245C271.274 146.785 271.794 145.695 272.834 144.975C273.874 144.245 275.404 143.88 277.424 143.88C278.564 143.88 279.589 143.985 280.499 144.195C281.409 144.405 282.174 144.655 282.794 144.945L283.184 148.53C282.464 148.21 281.659 147.945 280.769 147.735C279.889 147.525 278.964 147.42 277.994 147.42C277.404 147.42 276.939 147.46 276.599 147.54C276.269 147.62 276.034 147.735 275.894 147.885C275.764 148.035 275.699 148.22 275.699 148.44V148.485C275.699 148.725 275.779 148.93 275.939 149.1C276.099 149.27 276.389 149.43 276.809 149.58C277.239 149.73 277.854 149.9 278.654 150.09C279.894 150.36 280.894 150.67 281.654 151.02C282.414 151.36 282.969 151.805 283.319 152.355C283.669 152.895 283.844 153.615 283.844 154.515V154.65C283.844 156.24 283.309 157.425 282.239 158.205C281.169 158.975 279.529 159.36 277.319 159.36ZM294.763 159.33C293.453 159.33 292.408 159.135 291.628 158.745C290.858 158.345 290.303 157.75 289.963 156.96C289.623 156.17 289.453 155.195 289.453 154.035V145.8H294.013V153.3C294.013 154.02 294.173 154.55 294.493 154.89C294.823 155.22 295.433 155.385 296.323 155.385C296.813 155.385 297.298 155.33 297.778 155.22C298.258 155.11 298.693 154.97 299.083 154.8L298.693 158.595C298.183 158.815 297.593 158.99 296.923 159.12C296.263 159.26 295.543 159.33 294.763 159.33ZM287.473 147.915V144.315H298.948L298.543 147.915H287.473ZM289.513 144.645L289.498 140.835L294.043 140.4L293.878 144.645H289.513ZM304.041 159V144.255H308.631V159H304.041ZM306.336 142.86C305.476 142.86 304.851 142.665 304.461 142.275C304.071 141.875 303.876 141.34 303.876 140.67V140.565C303.876 139.895 304.071 139.365 304.461 138.975C304.851 138.585 305.476 138.39 306.336 138.39C307.176 138.39 307.791 138.585 308.181 138.975C308.581 139.365 308.781 139.895 308.781 140.565V140.67C308.781 141.35 308.581 141.885 308.181 142.275C307.791 142.665 307.176 142.86 306.336 142.86ZM321.062 159.39C318.722 159.39 316.987 158.775 315.857 157.545C314.727 156.315 314.162 154.585 314.162 152.355V150.825C314.162 148.635 314.727 146.925 315.857 145.695C316.987 144.465 318.717 143.85 321.047 143.85C321.647 143.85 322.207 143.895 322.727 143.985C323.247 144.065 323.727 144.18 324.167 144.33C324.607 144.48 324.992 144.64 325.322 144.81L325.697 148.605C325.207 148.325 324.667 148.095 324.077 147.915C323.487 147.725 322.822 147.63 322.082 147.63C320.922 147.63 320.082 147.91 319.562 148.47C319.042 149.03 318.782 149.84 318.782 150.9V152.175C318.782 153.255 319.057 154.085 319.607 154.665C320.157 155.245 321.017 155.535 322.187 155.535C322.917 155.535 323.572 155.45 324.152 155.28C324.742 155.1 325.302 154.87 325.832 154.59L325.472 158.4C324.952 158.68 324.312 158.915 323.552 159.105C322.792 159.295 321.962 159.39 321.062 159.39Z" fill="#ECEDE2"/>
<defs>
<clipPath id="clip0_17_1050">
<rect width="100" height="100" fill="white" transform="translate(113.5)"/>
</clipPath>
</defs>
</svg>
