<svg width="269" height="180" viewBox="0 0 269 180" fill="none" xmlns="http://www.w3.org/2000/svg">
<path fill-rule="evenodd" clip-rule="evenodd" d="M172 12.5H97V56.25C97 66.1956 100.951 75.7339 107.983 82.7665C115.016 89.7991 124.554 93.75 134.5 93.75C144.446 93.75 153.984 89.7991 161.017 82.7665C168.049 75.7339 172 66.1956 172 56.25V12.5ZM121.088 44.6625L116.662 49.0875L131.375 63.7937L155.463 39.7125L151.044 35.2875L131.375 54.9563L121.088 44.6625Z" fill="#ECEDE2"/>
<path d="M0.998828 159V154.77L5.69383 150.69C6.48383 150 7.13383 149.395 7.64383 148.875C8.16383 148.355 8.55383 147.86 8.81383 147.39C9.07383 146.92 9.20383 146.425 9.20383 145.905V145.77C9.20383 145.3 9.10383 144.895 8.90383 144.555C8.70383 144.205 8.36883 143.935 7.89883 143.745C7.43883 143.555 6.82383 143.46 6.05383 143.46C5.10383 143.46 4.20883 143.6 3.36883 143.88C2.52883 144.15 1.78383 144.45 1.13383 144.78L1.53883 140.73C1.96883 140.5 2.46383 140.29 3.02383 140.1C3.59383 139.9 4.22883 139.74 4.92883 139.62C5.63883 139.5 6.40883 139.44 7.23883 139.44C9.47883 139.44 11.1638 139.94 12.2938 140.94C13.4238 141.94 13.9888 143.34 13.9888 145.14V145.35C13.9888 146.29 13.8438 147.135 13.5538 147.885C13.2638 148.635 12.8138 149.365 12.2038 150.075C11.6038 150.775 10.8288 151.54 9.87883 152.37L7.04383 154.89V155.745L5.03383 155.055H14.1838V159H0.998828ZM37.1397 155.325L34.6797 156.39L37.9947 144.255H42.6897L36.6747 164.16H32.0847L34.3797 156.66L36.5397 158.37H31.4547L27.4647 144.255H32.1897L34.7397 155.325H37.1397ZM54.352 159.375C51.672 159.375 49.692 158.78 48.412 157.59C47.132 156.39 46.492 154.645 46.492 152.355V150.825C46.492 148.565 47.092 146.835 48.292 145.635C49.492 144.425 51.237 143.82 53.527 143.82C55.067 143.82 56.347 144.085 57.367 144.615C58.397 145.135 59.167 145.88 59.677 146.85C60.197 147.82 60.457 148.985 60.457 150.345V150.84C60.457 151.22 60.437 151.61 60.397 152.01C60.367 152.4 60.322 152.765 60.262 153.105H56.122C56.162 152.525 56.187 151.98 56.197 151.47C56.207 150.95 56.212 150.48 56.212 150.06C56.212 149.45 56.117 148.94 55.927 148.53C55.737 148.11 55.442 147.79 55.042 147.57C54.652 147.35 54.147 147.24 53.527 147.24C52.607 147.24 51.932 147.49 51.502 147.99C51.082 148.48 50.872 149.18 50.872 150.09V151.44L50.902 151.935V152.985C50.902 153.365 50.962 153.725 51.082 154.065C51.212 154.405 51.432 154.705 51.742 154.965C52.062 155.215 52.497 155.415 53.047 155.565C53.607 155.705 54.317 155.775 55.177 155.775C56.087 155.775 56.962 155.69 57.802 155.52C58.642 155.34 59.447 155.1 60.217 154.8L59.842 158.25C59.162 158.6 58.357 158.875 57.427 159.075C56.497 159.275 55.472 159.375 54.352 159.375ZM48.922 153.105V150.27H59.332V153.105H48.922ZM74.2973 159L74.4323 155.31L74.3273 155.085V150.48L74.2973 149.88C74.2973 149.06 74.0573 148.455 73.5773 148.065C73.0973 147.675 72.2923 147.48 71.1623 147.48C70.1723 147.48 69.2323 147.605 68.3423 147.855C67.4523 148.105 66.6123 148.39 65.8223 148.71L66.2123 145.155C66.6823 144.935 67.2073 144.73 67.7873 144.54C68.3773 144.34 69.0273 144.18 69.7373 144.06C70.4473 143.94 71.2073 143.88 72.0173 143.88C73.3073 143.88 74.3873 144.03 75.2573 144.33C76.1273 144.63 76.8223 145.055 77.3423 145.605C77.8623 146.155 78.2373 146.815 78.4673 147.585C78.6973 148.345 78.8123 149.185 78.8123 150.105V159H74.2973ZM69.6023 159.345C68.1323 159.345 67.0173 158.975 66.2573 158.235C65.4973 157.495 65.1173 156.44 65.1173 155.07V154.665C65.1173 153.215 65.5623 152.145 66.4523 151.455C67.3523 150.755 68.7773 150.28 70.7273 150.03L74.6873 149.505L74.9573 152.265L71.4473 152.775C70.7373 152.865 70.2373 153.03 69.9473 153.27C69.6573 153.51 69.5123 153.865 69.5123 154.335V154.44C69.5123 154.89 69.6573 155.25 69.9473 155.52C70.2373 155.78 70.7023 155.91 71.3423 155.91C71.9023 155.91 72.3823 155.825 72.7823 155.655C73.1923 155.485 73.5273 155.265 73.7873 154.995C74.0473 154.715 74.2423 154.405 74.3723 154.065L75.0173 155.925H74.2673C74.1073 156.565 73.8573 157.145 73.5173 157.665C73.1873 158.185 72.7073 158.595 72.0773 158.895C71.4473 159.195 70.6223 159.345 69.6023 159.345ZM89.1726 150.72L87.9126 147.93H88.9926C89.2326 146.71 89.6976 145.755 90.3876 145.065C91.0876 144.365 92.0726 144.015 93.3426 144.015C93.5626 144.015 93.7626 144.03 93.9426 144.06C94.1326 144.09 94.3126 144.125 94.4826 144.165L94.7076 148.8C94.4976 148.74 94.2526 148.7 93.9726 148.68C93.6926 148.65 93.4076 148.635 93.1176 148.635C92.1376 148.635 91.3126 148.82 90.6426 149.19C89.9726 149.55 89.4826 150.06 89.1726 150.72ZM84.6726 159V144.255H88.9926L88.7976 148.965L89.2626 149.025V159H84.6726ZM105.022 159.36C103.852 159.36 102.797 159.255 101.857 159.045C100.917 158.845 100.112 158.61 99.4422 158.34L99.0522 154.485C99.8222 154.805 100.672 155.095 101.602 155.355C102.542 155.605 103.557 155.73 104.647 155.73C105.517 155.73 106.132 155.64 106.492 155.46C106.862 155.27 107.047 154.98 107.047 154.59V154.53C107.047 154.26 106.952 154.04 106.762 153.87C106.582 153.69 106.262 153.53 105.802 153.39C105.352 153.25 104.717 153.085 103.897 152.895C102.667 152.605 101.692 152.265 100.972 151.875C100.252 151.475 99.7372 150.99 99.4272 150.42C99.1272 149.84 98.9772 149.155 98.9772 148.365V148.245C98.9772 146.785 99.4972 145.695 100.537 144.975C101.577 144.245 103.107 143.88 105.127 143.88C106.267 143.88 107.292 143.985 108.202 144.195C109.112 144.405 109.877 144.655 110.497 144.945L110.887 148.53C110.167 148.21 109.362 147.945 108.472 147.735C107.592 147.525 106.667 147.42 105.697 147.42C105.107 147.42 104.642 147.46 104.302 147.54C103.972 147.62 103.737 147.735 103.597 147.885C103.467 148.035 103.402 148.22 103.402 148.44V148.485C103.402 148.725 103.482 148.93 103.642 149.1C103.802 149.27 104.092 149.43 104.512 149.58C104.942 149.73 105.557 149.9 106.357 150.09C107.597 150.36 108.597 150.67 109.357 151.02C110.117 151.36 110.672 151.805 111.022 152.355C111.372 152.895 111.547 153.615 111.547 154.515V154.65C111.547 156.24 111.012 157.425 109.942 158.205C108.872 158.975 107.232 159.36 105.022 159.36ZM127.685 159L124.73 144.255H129.38L131.21 155.76H131.48L133.28 144.615H138.89L140.72 155.76H140.975L142.82 144.255H147.425L144.47 159H137.945L136.46 149.61L136.205 147.96H135.995L135.725 149.61L134.24 159H127.685ZM160.371 159L160.506 155.31L160.401 155.085V150.48L160.371 149.88C160.371 149.06 160.131 148.455 159.651 148.065C159.171 147.675 158.366 147.48 157.236 147.48C156.246 147.48 155.306 147.605 154.416 147.855C153.526 148.105 152.686 148.39 151.896 148.71L152.286 145.155C152.756 144.935 153.281 144.73 153.861 144.54C154.451 144.34 155.101 144.18 155.811 144.06C156.521 143.94 157.281 143.88 158.091 143.88C159.381 143.88 160.461 144.03 161.331 144.33C162.201 144.63 162.896 145.055 163.416 145.605C163.936 146.155 164.311 146.815 164.541 147.585C164.771 148.345 164.886 149.185 164.886 150.105V159H160.371ZM155.676 159.345C154.206 159.345 153.091 158.975 152.331 158.235C151.571 157.495 151.191 156.44 151.191 155.07V154.665C151.191 153.215 151.636 152.145 152.526 151.455C153.426 150.755 154.851 150.28 156.801 150.03L160.761 149.505L161.031 152.265L157.521 152.775C156.811 152.865 156.311 153.03 156.021 153.27C155.731 153.51 155.586 153.865 155.586 154.335V154.44C155.586 154.89 155.731 155.25 156.021 155.52C156.311 155.78 156.776 155.91 157.416 155.91C157.976 155.91 158.456 155.825 158.856 155.655C159.266 155.485 159.601 155.265 159.861 154.995C160.121 154.715 160.316 154.405 160.446 154.065L161.091 155.925H160.341C160.181 156.565 159.931 157.145 159.591 157.665C159.261 158.185 158.781 158.595 158.151 158.895C157.521 159.195 156.696 159.345 155.676 159.345ZM175.247 150.72L173.987 147.93H175.067C175.307 146.71 175.772 145.755 176.462 145.065C177.162 144.365 178.147 144.015 179.417 144.015C179.637 144.015 179.837 144.03 180.017 144.06C180.207 144.09 180.387 144.125 180.557 144.165L180.782 148.8C180.572 148.74 180.327 148.7 180.047 148.68C179.767 148.65 179.482 148.635 179.192 148.635C178.212 148.635 177.387 148.82 176.717 149.19C176.047 149.55 175.557 150.06 175.247 150.72ZM170.747 159V144.255H175.067L174.872 148.965L175.337 149.025V159H170.747ZM190.141 150.72L188.881 147.93H189.961C190.201 146.71 190.666 145.755 191.356 145.065C192.056 144.365 193.041 144.015 194.311 144.015C194.531 144.015 194.731 144.03 194.911 144.06C195.101 144.09 195.281 144.125 195.451 144.165L195.676 148.8C195.466 148.74 195.221 148.7 194.941 148.68C194.661 148.65 194.376 148.635 194.086 148.635C193.106 148.635 192.281 148.82 191.611 149.19C190.941 149.55 190.451 150.06 190.141 150.72ZM185.641 159V144.255H189.961L189.766 148.965L190.231 149.025V159H185.641ZM208.746 159L208.881 155.31L208.776 155.085V150.48L208.746 149.88C208.746 149.06 208.506 148.455 208.026 148.065C207.546 147.675 206.741 147.48 205.611 147.48C204.621 147.48 203.681 147.605 202.791 147.855C201.901 148.105 201.061 148.39 200.271 148.71L200.661 145.155C201.131 144.935 201.656 144.73 202.236 144.54C202.826 144.34 203.476 144.18 204.186 144.06C204.896 143.94 205.656 143.88 206.466 143.88C207.756 143.88 208.836 144.03 209.706 144.33C210.576 144.63 211.271 145.055 211.791 145.605C212.311 146.155 212.686 146.815 212.916 147.585C213.146 148.345 213.261 149.185 213.261 150.105V159H208.746ZM204.051 159.345C202.581 159.345 201.466 158.975 200.706 158.235C199.946 157.495 199.566 156.44 199.566 155.07V154.665C199.566 153.215 200.011 152.145 200.901 151.455C201.801 150.755 203.226 150.28 205.176 150.03L209.136 149.505L209.406 152.265L205.896 152.775C205.186 152.865 204.686 153.03 204.396 153.27C204.106 153.51 203.961 153.865 203.961 154.335V154.44C203.961 154.89 204.106 155.25 204.396 155.52C204.686 155.78 205.151 155.91 205.791 155.91C206.351 155.91 206.831 155.825 207.231 155.655C207.641 155.485 207.976 155.265 208.236 154.995C208.496 154.715 208.691 154.405 208.821 154.065L209.466 155.925H208.716C208.556 156.565 208.306 157.145 207.966 157.665C207.636 158.185 207.156 158.595 206.526 158.895C205.896 159.195 205.071 159.345 204.051 159.345ZM228.602 159V150.33C228.602 149.79 228.532 149.325 228.392 148.935C228.252 148.535 228.017 148.23 227.687 148.02C227.357 147.81 226.907 147.705 226.337 147.705C225.867 147.705 225.452 147.79 225.092 147.96C224.732 148.12 224.427 148.345 224.177 148.635C223.937 148.915 223.757 149.235 223.637 149.595L222.932 147.45H223.712C223.872 146.78 224.132 146.18 224.492 145.65C224.862 145.12 225.367 144.7 226.007 144.39C226.647 144.07 227.457 143.91 228.437 143.91C229.537 143.91 230.437 144.125 231.137 144.555C231.837 144.975 232.352 145.605 232.682 146.445C233.022 147.285 233.192 148.335 233.192 149.595V159H228.602ZM219.122 159V144.255H223.682L223.532 147.945L223.712 148.38V159H219.122ZM244.95 159.33C243.64 159.33 242.595 159.135 241.815 158.745C241.045 158.345 240.49 157.75 240.15 156.96C239.81 156.17 239.64 155.195 239.64 154.035V145.8H244.2V153.3C244.2 154.02 244.36 154.55 244.68 154.89C245.01 155.22 245.62 155.385 246.51 155.385C247 155.385 247.485 155.33 247.965 155.22C248.445 155.11 248.88 154.97 249.27 154.8L248.88 158.595C248.37 158.815 247.78 158.99 247.11 159.12C246.45 159.26 245.73 159.33 244.95 159.33ZM237.66 147.915V144.315H249.135L248.73 147.915H237.66ZM239.7 144.645L239.685 140.835L244.23 140.4L244.065 144.645H239.7ZM262.995 155.325L260.535 156.39L263.85 144.255H268.545L262.53 164.16H257.94L260.235 156.66L262.395 158.37H257.31L253.32 144.255H258.045L260.595 155.325H262.995Z" fill="#ECEDE2"/>
</svg>
