<svg width="100" height="100" viewBox="0 0 100 100" fill="none" xmlns="http://www.w3.org/2000/svg">
<g clip-path="url(#clip0_17_1031)">
<path d="M34.1214 8.80859C37.5394 3.32031 43.555 0 50.0003 0C56.4456 0 62.4612 3.32031 65.8792 8.80859L73.4183 20.8594L78.6917 17.8125C80.3323 16.8555 82.3831 16.9922 83.887 18.1445C85.3909 19.2969 86.055 21.25 85.5667 23.0859L80.9964 40.1563C80.3323 42.6563 77.7542 44.1406 75.2542 43.4766L58.1839 38.9063C56.348 38.418 55.0003 36.875 54.7464 35C54.4925 33.125 55.4105 31.2695 57.0511 30.332L62.598 27.1289L55.2737 15.4297C54.1409 13.6133 52.1487 12.5 50.0003 12.5C47.8519 12.5 45.8597 13.6133 44.7269 15.4297L41.3089 20.8984C39.512 23.7891 35.723 24.707 32.7933 22.9492C29.805 21.1523 28.848 17.2461 30.7034 14.2773L34.1214 8.80859ZM83.887 49.1992C86.8167 47.4414 90.6058 48.3594 92.4026 51.25L97.1683 58.8867C99.0042 61.8359 99.9808 65.2149 100.02 68.6914C100.078 79.0625 91.68 87.5195 81.3089 87.5195L62.5003 87.5V93.75C62.5003 95.6445 61.3675 97.3633 59.6097 98.0859C57.8519 98.8086 55.8401 98.418 54.4925 97.0703L41.9925 84.5703C40.1566 82.7344 40.1566 79.7656 41.9925 77.9492L54.4925 65.4492C55.8401 64.1016 57.8519 63.7109 59.6097 64.4336C61.3675 65.1562 62.5003 66.875 62.5003 68.7695V75.0195H81.2894C84.7269 75.0195 87.5198 72.207 87.5003 68.7695C87.5003 67.6172 87.1683 66.4844 86.5628 65.5078L81.7972 57.8711C79.9417 54.9023 80.8792 50.9961 83.887 49.1992ZM12.6761 43.1445L7.03155 39.8828C5.39093 38.9258 4.47296 37.0898 4.72687 35.2148C4.98077 33.3398 6.32843 31.7969 8.16437 31.3086L25.2347 26.7383C27.7347 26.0742 30.3128 27.5586 30.9769 30.0586L35.5472 47.1094C36.0355 48.9453 35.3714 50.8789 33.8675 52.0508C32.3636 53.2227 30.3128 53.3399 28.6722 52.3828L23.4964 49.3945L13.4378 65.4883C12.8323 66.4648 12.5003 67.5977 12.5003 68.75C12.4808 72.1875 15.2737 75 18.7112 75H25.0003C28.4573 75 31.2503 77.793 31.2503 81.25C31.2503 84.707 28.4573 87.5 25.0003 87.5H18.7112C8.34015 87.5 -0.058289 79.0625 0.000304741 68.6719C0.019836 65.1953 0.996399 61.8164 2.85187 58.8672L12.6761 43.1445Z" fill="#2C2C2C"/>
</g>
<defs>
<clipPath id="clip0_17_1031">
<rect width="100" height="100" fill="white"/>
</clipPath>
</defs>
</svg>
