<svg width="100" height="100" viewBox="0 0 100 100" fill="none" xmlns="http://www.w3.org/2000/svg">
<path d="M54.1663 16.6667C55.2714 16.6667 56.3312 17.1056 57.1126 17.887C57.894 18.6684 58.333 19.7283 58.333 20.8333H74.9997C75.627 20.8333 76.2462 20.975 76.8111 21.2477C77.376 21.5204 77.872 21.9171 78.2622 22.4083L78.5705 22.8583L91.0705 43.6917L91.2997 44.1208L91.4663 44.5667L91.5872 45.0208L91.6538 45.4792L91.6664 45.8333V70.8333C91.6664 71.9384 91.2274 72.9982 90.446 73.7796C89.6646 74.561 88.6048 75 87.4997 75H82.6205C81.7579 77.4368 80.1613 79.5465 78.0504 81.0385C75.9395 82.5306 73.418 83.3317 70.833 83.3317C68.248 83.3317 65.7265 82.5306 63.6156 81.0385C61.5047 79.5465 59.9081 77.4368 59.0455 75H40.9538C40.0913 77.4368 38.4947 79.5465 36.3837 81.0385C34.2728 82.5306 31.7513 83.3317 29.1663 83.3317C26.5813 83.3317 24.0599 82.5306 21.9489 81.0385C19.838 79.5465 18.2414 77.4368 17.3788 75H12.4997C11.3946 75 10.3348 74.561 9.5534 73.7796C8.77199 72.9982 8.33301 71.9384 8.33301 70.8333V25C8.33301 22.7899 9.21098 20.6702 10.7738 19.1074C12.3366 17.5446 14.4562 16.6667 16.6663 16.6667H54.1663ZM29.1663 66.6667C28.0613 66.6667 27.0015 67.1056 26.2201 67.887C25.4387 68.6684 24.9997 69.7283 24.9997 70.8333C24.9997 71.9384 25.4387 72.9982 26.2201 73.7796C27.0015 74.561 28.0613 75 29.1663 75C30.2714 75 31.3312 74.561 32.1126 73.7796C32.894 72.9982 33.333 71.9384 33.333 70.8333C33.333 69.7283 32.894 68.6684 32.1126 67.887C31.3312 67.1056 30.2714 66.6667 29.1663 66.6667ZM70.833 66.6667C69.7279 66.6667 68.6681 67.1056 67.8867 67.887C67.1053 68.6684 66.6663 69.7283 66.6663 70.8333C66.6663 71.9384 67.1053 72.9982 67.8867 73.7796C68.6681 74.561 69.7279 75 70.833 75C71.9381 75 72.9979 74.561 73.7793 73.7796C74.5607 72.9982 74.9997 71.9384 74.9997 70.8333C74.9997 69.7283 74.5607 68.6684 73.7793 67.887C72.9979 67.1056 71.9381 66.6667 70.833 66.6667ZM72.6413 29.1667H58.333V41.6667H80.1413L72.6413 29.1667Z" fill="#2C2C2C"/>
</svg>
