<svg width="209" height="180" viewBox="0 0 209 180" fill="none" xmlns="http://www.w3.org/2000/svg">
<path d="M108.666 16.6667C109.771 16.6667 110.831 17.1056 111.613 17.887C112.394 18.6684 112.833 19.7283 112.833 20.8333H129.5C130.127 20.8333 130.746 20.975 131.311 21.2477C131.876 21.5204 132.372 21.9171 132.762 22.4083L133.071 22.8583L145.571 43.6917L145.8 44.1208L145.966 44.5667L146.087 45.0208L146.154 45.4792L146.166 45.8333V70.8333C146.166 71.9384 145.727 72.9982 144.946 73.7796C144.165 74.561 143.105 75 142 75H137.121C136.258 77.4368 134.661 79.5465 132.55 81.0385C130.439 82.5306 127.918 83.3317 125.333 83.3317C122.748 83.3317 120.227 82.5306 118.116 81.0385C116.005 79.5465 114.408 77.4368 113.546 75H95.4538C94.5913 77.4368 92.9947 79.5465 90.8837 81.0385C88.7728 82.5306 86.2513 83.3317 83.6663 83.3317C81.0813 83.3317 78.5599 82.5306 76.4489 81.0385C74.338 79.5465 72.7414 77.4368 71.8788 75H66.9997C65.8946 75 64.8348 74.561 64.0534 73.7796C63.272 72.9982 62.833 71.9384 62.833 70.8333V25C62.833 22.7899 63.711 20.6702 65.2738 19.1074C66.8366 17.5446 68.9562 16.6667 71.1663 16.6667H108.666ZM83.6663 66.6667C82.5613 66.6667 81.5015 67.1056 80.7201 67.887C79.9387 68.6684 79.4997 69.7283 79.4997 70.8333C79.4997 71.9384 79.9387 72.9982 80.7201 73.7796C81.5015 74.561 82.5613 75 83.6663 75C84.7714 75 85.8312 74.561 86.6126 73.7796C87.394 72.9982 87.833 71.9384 87.833 70.8333C87.833 69.7283 87.394 68.6684 86.6126 67.887C85.8312 67.1056 84.7714 66.6667 83.6663 66.6667ZM125.333 66.6667C124.228 66.6667 123.168 67.1056 122.387 67.887C121.605 68.6684 121.166 69.7283 121.166 70.8333C121.166 71.9384 121.605 72.9982 122.387 73.7796C123.168 74.561 124.228 75 125.333 75C126.438 75 127.498 74.561 128.279 73.7796C129.061 72.9982 129.5 71.9384 129.5 70.8333C129.5 69.7283 129.061 68.6684 128.279 67.887C127.498 67.1056 126.438 66.6667 125.333 66.6667ZM127.141 29.1667H112.833V41.6667H134.641L127.141 29.1667Z" fill="#2C2C2C"/>
<path d="M1.78492 159V139.83H6.44992V159H1.78492ZM4.46992 152.325V148.38H14.4149V152.325H4.46992ZM3.13492 143.775V139.83H14.6399V143.775H3.13492ZM24.5437 150.72L23.2837 147.93H24.3637C24.6037 146.71 25.0687 145.755 25.7587 145.065C26.4587 144.365 27.4437 144.015 28.7137 144.015C28.9337 144.015 29.1337 144.03 29.3137 144.06C29.5037 144.09 29.6837 144.125 29.8537 144.165L30.0787 148.8C29.8687 148.74 29.6237 148.7 29.3437 148.68C29.0637 148.65 28.7787 148.635 28.4887 148.635C27.5087 148.635 26.6837 148.82 26.0137 149.19C25.3437 149.55 24.8537 150.06 24.5437 150.72ZM20.0437 159V144.255H24.3637L24.1687 148.965L24.6337 149.025V159H20.0437ZM42.1703 159.375C39.4903 159.375 37.5103 158.78 36.2303 157.59C34.9503 156.39 34.3103 154.645 34.3103 152.355V150.825C34.3103 148.565 34.9103 146.835 36.1103 145.635C37.3103 144.425 39.0553 143.82 41.3453 143.82C42.8853 143.82 44.1653 144.085 45.1853 144.615C46.2153 145.135 46.9853 145.88 47.4953 146.85C48.0153 147.82 48.2753 148.985 48.2753 150.345V150.84C48.2753 151.22 48.2553 151.61 48.2153 152.01C48.1853 152.4 48.1403 152.765 48.0803 153.105H43.9403C43.9803 152.525 44.0053 151.98 44.0153 151.47C44.0253 150.95 44.0303 150.48 44.0303 150.06C44.0303 149.45 43.9353 148.94 43.7453 148.53C43.5553 148.11 43.2603 147.79 42.8603 147.57C42.4703 147.35 41.9653 147.24 41.3453 147.24C40.4253 147.24 39.7503 147.49 39.3203 147.99C38.9003 148.48 38.6903 149.18 38.6903 150.09V151.44L38.7203 151.935V152.985C38.7203 153.365 38.7803 153.725 38.9003 154.065C39.0303 154.405 39.2503 154.705 39.5603 154.965C39.8803 155.215 40.3153 155.415 40.8653 155.565C41.4253 155.705 42.1353 155.775 42.9953 155.775C43.9053 155.775 44.7803 155.69 45.6203 155.52C46.4603 155.34 47.2653 155.1 48.0353 154.8L47.6603 158.25C46.9803 158.6 46.1753 158.875 45.2453 159.075C44.3153 159.275 43.2903 159.375 42.1703 159.375ZM36.7403 153.105V150.27H47.1503V153.105H36.7403ZM61.0785 159.375C58.3985 159.375 56.4185 158.78 55.1385 157.59C53.8585 156.39 53.2185 154.645 53.2185 152.355V150.825C53.2185 148.565 53.8185 146.835 55.0185 145.635C56.2185 144.425 57.9635 143.82 60.2535 143.82C61.7935 143.82 63.0735 144.085 64.0935 144.615C65.1235 145.135 65.8935 145.88 66.4035 146.85C66.9235 147.82 67.1835 148.985 67.1835 150.345V150.84C67.1835 151.22 67.1635 151.61 67.1235 152.01C67.0935 152.4 67.0485 152.765 66.9885 153.105H62.8485C62.8885 152.525 62.9135 151.98 62.9235 151.47C62.9335 150.95 62.9385 150.48 62.9385 150.06C62.9385 149.45 62.8435 148.94 62.6535 148.53C62.4635 148.11 62.1685 147.79 61.7685 147.57C61.3785 147.35 60.8735 147.24 60.2535 147.24C59.3335 147.24 58.6585 147.49 58.2285 147.99C57.8085 148.48 57.5985 149.18 57.5985 150.09V151.44L57.6285 151.935V152.985C57.6285 153.365 57.6885 153.725 57.8085 154.065C57.9385 154.405 58.1585 154.705 58.4685 154.965C58.7885 155.215 59.2235 155.415 59.7735 155.565C60.3335 155.705 61.0435 155.775 61.9035 155.775C62.8135 155.775 63.6885 155.69 64.5285 155.52C65.3685 155.34 66.1735 155.1 66.9435 154.8L66.5685 158.25C65.8885 158.6 65.0835 158.875 64.1535 159.075C63.2235 159.275 62.1985 159.375 61.0785 159.375ZM55.6485 153.105V150.27H66.0585V153.105H55.6485ZM86.5448 159.345C84.8248 159.345 83.5198 158.78 82.6298 157.65C81.7498 156.52 81.3098 154.84 81.3098 152.61V150.795C81.3098 148.525 81.7548 146.81 82.6448 145.65C83.5348 144.49 84.8798 143.91 86.6798 143.91C87.5598 143.91 88.2948 144.055 88.8848 144.345C89.4748 144.635 89.9448 145.045 90.2948 145.575C90.6548 146.105 90.9048 146.73 91.0448 147.45H92.2898L91.2098 150.42C91.1898 149.81 91.0698 149.295 90.8498 148.875C90.6298 148.455 90.3198 148.135 89.9198 147.915C89.5298 147.685 89.0548 147.57 88.4948 147.57C87.6548 147.57 87.0148 147.815 86.5748 148.305C86.1348 148.795 85.9148 149.53 85.9148 150.51V152.625C85.9148 153.595 86.1348 154.33 86.5748 154.83C87.0248 155.32 87.6848 155.565 88.5548 155.565C89.0148 155.565 89.4248 155.48 89.7848 155.31C90.1548 155.14 90.4648 154.905 90.7148 154.605C90.9748 154.305 91.1648 153.965 91.2848 153.585L92.4098 155.805H91.1198C90.9698 156.465 90.7198 157.065 90.3698 157.605C90.0198 158.145 89.5348 158.57 88.9148 158.88C88.2948 159.19 87.5048 159.345 86.5448 159.345ZM91.1498 159L91.2848 155.265L91.2098 154.485V148.515V147.87L91.1498 143.595V139.185H95.7098V159H91.1498ZM109.102 159.375C106.422 159.375 104.442 158.78 103.162 157.59C101.882 156.39 101.242 154.645 101.242 152.355V150.825C101.242 148.565 101.842 146.835 103.042 145.635C104.242 144.425 105.987 143.82 108.277 143.82C109.817 143.82 111.097 144.085 112.117 144.615C113.147 145.135 113.917 145.88 114.427 146.85C114.947 147.82 115.207 148.985 115.207 150.345V150.84C115.207 151.22 115.187 151.61 115.147 152.01C115.117 152.4 115.072 152.765 115.012 153.105H110.872C110.912 152.525 110.937 151.98 110.947 151.47C110.957 150.95 110.962 150.48 110.962 150.06C110.962 149.45 110.867 148.94 110.677 148.53C110.487 148.11 110.192 147.79 109.792 147.57C109.402 147.35 108.897 147.24 108.277 147.24C107.357 147.24 106.682 147.49 106.252 147.99C105.832 148.48 105.622 149.18 105.622 150.09V151.44L105.652 151.935V152.985C105.652 153.365 105.712 153.725 105.832 154.065C105.962 154.405 106.182 154.705 106.492 154.965C106.812 155.215 107.247 155.415 107.797 155.565C108.357 155.705 109.067 155.775 109.927 155.775C110.837 155.775 111.712 155.69 112.552 155.52C113.392 155.34 114.197 155.1 114.967 154.8L114.592 158.25C113.912 158.6 113.107 158.875 112.177 159.075C111.247 159.275 110.222 159.375 109.102 159.375ZM103.672 153.105V150.27H114.082V153.105H103.672ZM120.705 159V139.185H125.295V159H120.705ZM131.381 159V144.255H135.971V159H131.381ZM133.676 142.86C132.816 142.86 132.191 142.665 131.801 142.275C131.411 141.875 131.216 141.34 131.216 140.67V140.565C131.216 139.895 131.411 139.365 131.801 138.975C132.191 138.585 132.816 138.39 133.676 138.39C134.516 138.39 135.131 138.585 135.521 138.975C135.921 139.365 136.121 139.895 136.121 140.565V140.67C136.121 141.35 135.921 141.885 135.521 142.275C135.131 142.665 134.516 142.86 133.676 142.86ZM148.612 156L151.297 144.255H156.007L152.092 159H144.742L140.797 144.255H145.537L148.252 156H148.612ZM167.86 159.375C165.18 159.375 163.2 158.78 161.92 157.59C160.64 156.39 160 154.645 160 152.355V150.825C160 148.565 160.6 146.835 161.8 145.635C163 144.425 164.745 143.82 167.035 143.82C168.575 143.82 169.855 144.085 170.875 144.615C171.905 145.135 172.675 145.88 173.185 146.85C173.705 147.82 173.965 148.985 173.965 150.345V150.84C173.965 151.22 173.945 151.61 173.905 152.01C173.875 152.4 173.83 152.765 173.77 153.105H169.63C169.67 152.525 169.695 151.98 169.705 151.47C169.715 150.95 169.72 150.48 169.72 150.06C169.72 149.45 169.625 148.94 169.435 148.53C169.245 148.11 168.95 147.79 168.55 147.57C168.16 147.35 167.655 147.24 167.035 147.24C166.115 147.24 165.44 147.49 165.01 147.99C164.59 148.48 164.38 149.18 164.38 150.09V151.44L164.41 151.935V152.985C164.41 153.365 164.47 153.725 164.59 154.065C164.72 154.405 164.94 154.705 165.25 154.965C165.57 155.215 166.005 155.415 166.555 155.565C167.115 155.705 167.825 155.775 168.685 155.775C169.595 155.775 170.47 155.69 171.31 155.52C172.15 155.34 172.955 155.1 173.725 154.8L173.35 158.25C172.67 158.6 171.865 158.875 170.935 159.075C170.005 159.275 168.98 159.375 167.86 159.375ZM162.43 153.105V150.27H172.84V153.105H162.43ZM183.948 150.72L182.688 147.93H183.768C184.008 146.71 184.473 145.755 185.163 145.065C185.863 144.365 186.848 144.015 188.118 144.015C188.338 144.015 188.538 144.03 188.718 144.06C188.908 144.09 189.088 144.125 189.258 144.165L189.483 148.8C189.273 148.74 189.028 148.7 188.748 148.68C188.468 148.65 188.183 148.635 187.893 148.635C186.913 148.635 186.088 148.82 185.418 149.19C184.748 149.55 184.258 150.06 183.948 150.72ZM179.448 159V144.255H183.768L183.573 148.965L184.038 149.025V159H179.448ZM203.124 155.325L200.664 156.39L203.979 144.255H208.674L202.659 164.16H198.069L200.364 156.66L202.524 158.37H197.439L193.449 144.255H198.174L200.724 155.325H203.124Z" fill="#2C2C2C"/>
</svg>
