<svg width="415" height="130" viewBox="0 0 415 130" fill="none" xmlns="http://www.w3.org/2000/svg">
<path d="M101.305 79.2097L101.877 79.7804L101.076 82.8049C100.007 82.6908 98.5556 82.5957 96.7228 82.5196C94.8901 82.4816 92.8474 82.4625 90.5946 82.4625C88.3801 82.4245 86.1273 82.4055 83.8364 82.4055C81.5455 82.4055 79.4073 82.4055 77.4218 82.4055V81.6065C77.88 80.9598 78.2046 79.9706 78.3955 78.639C78.5864 77.2694 78.6818 75.8427 78.6818 74.3589V47.0806C78.6818 46.6621 78.5864 46.2627 78.3955 45.8822C78.2046 45.5018 77.8991 45.2735 77.4791 45.1974C77.0973 45.1213 76.6391 45.0262 76.1046 44.9121C75.6082 44.7979 75.1691 44.7028 74.7873 44.6267C74.4055 44.5506 74.1955 44.5126 74.1573 44.5126L74.2146 43.5424L74.6155 43.143H88.1892L88.5328 43.4854V44.6838C88.5328 44.6838 88.3037 44.7409 87.8455 44.855C87.3873 44.9311 86.8719 45.0262 86.2992 45.1403C85.7264 45.2545 85.2301 45.3686 84.8101 45.4827C84.4664 45.5208 84.2182 45.692 84.0655 45.9963C83.9128 46.3007 83.8173 46.6051 83.7792 46.9094C83.5501 51.0563 83.4355 55.4505 83.4355 60.092C83.4355 63.3259 83.4737 66.5787 83.5501 69.8506C83.6264 73.0844 83.7219 76.2422 83.8364 79.3238C83.8746 79.476 83.9701 79.6472 84.1228 79.8374C84.2755 79.9896 84.4282 80.0657 84.581 80.0657C86.0701 80.0657 87.7501 80.0277 89.621 79.9516C91.4919 79.8755 93.3056 79.7804 95.0619 79.6662C96.8183 79.5521 98.2692 79.457 99.4147 79.3809C100.598 79.2668 101.228 79.2097 101.305 79.2097Z" fill="#ECEDE2"/>
<path d="M121.072 44.056C121.034 44.2463 120.976 44.7028 120.9 45.4257C120.862 46.1105 120.824 46.8904 120.786 47.7654C120.747 48.6405 120.709 49.4394 120.671 50.1623C120.633 50.8851 120.614 51.3607 120.614 51.589L120.156 67.1684C120.156 70.3642 120.614 72.8562 121.53 74.6443C122.446 76.4324 123.668 77.7069 125.196 78.4678C126.723 79.1907 128.403 79.5521 130.236 79.5521C132.03 79.5521 133.767 79.2287 135.447 78.5819C137.166 77.8971 138.788 77.0982 140.316 76.1851C140.316 70.9729 140.335 65.7607 140.373 60.5486C140.449 55.2984 140.507 50.0862 140.545 44.9121L145.585 42.9147L145.928 43.3142C145.699 44.9501 145.527 46.8714 145.413 49.078C145.298 51.2846 145.203 53.6434 145.127 56.1544C145.088 58.6273 145.05 61.1383 145.012 63.6873C145.012 66.2363 145.012 68.6712 145.012 70.992C145.012 72.5518 145.05 73.9975 145.127 75.3291C145.203 76.6607 145.432 77.745 145.814 78.5819C146.196 79.3809 146.845 79.7804 147.761 79.7804C148.334 79.7804 148.887 79.7233 149.422 79.6092C149.957 79.457 150.51 79.3619 151.083 79.3238L151.312 80.294L151.026 80.6935C150.071 80.9978 149.021 81.3212 147.876 81.6636C146.73 81.968 145.661 82.2343 144.668 82.4625C143.676 82.6908 142.874 82.8049 142.263 82.8049C141.537 82.8049 141.041 82.5957 140.774 82.1772C140.507 81.7587 140.373 81.2451 140.373 80.6364C140.373 80.0277 140.373 79.438 140.373 78.8673L139.915 78.5249C137.929 79.8184 135.791 80.9027 133.5 81.7777C131.247 82.6147 128.937 83.0332 126.57 83.0332C123.936 83.0332 121.893 82.6338 120.442 81.8348C118.991 80.9978 117.941 79.9706 117.292 78.7531C116.681 77.5357 116.261 76.3753 116.032 75.272C115.841 73.9404 115.707 72.3235 115.631 70.4213C115.593 68.519 115.574 66.6929 115.574 64.9428C115.574 62.7362 115.593 60.5105 115.631 58.2659C115.669 56.0212 115.688 53.7956 115.688 51.589V48.222C115.688 47.6513 115.459 47.1757 115.001 46.7953C114.581 46.4148 114.066 46.1105 113.455 45.8822C112.844 45.6539 112.271 45.5018 111.736 45.4257C111.202 45.3115 110.839 45.2545 110.648 45.2545L110.534 44.1131L110.992 43.7136H120.671L121.072 44.056Z" fill="#ECEDE2"/>
<path d="M187.16 74.1307L202.967 43.143H208.866V43.8278C208.103 44.2082 207.664 44.893 207.549 45.8822C207.473 46.8714 207.435 47.9937 207.435 49.2492C207.435 53.9287 207.473 58.5132 207.549 63.0025C207.664 67.4538 207.969 72.0192 208.466 76.6987C208.542 77.5357 208.866 78.2776 209.439 78.9243C210.05 79.5711 210.833 79.8945 211.787 79.8945C212.169 79.8945 212.666 79.8565 213.276 79.7804C213.926 79.6662 214.498 79.5901 214.995 79.5521V80.9217C213.735 81.3783 212.398 81.8158 210.986 82.2343C209.611 82.6528 208.351 82.862 207.206 82.862C206.366 82.862 205.545 82.7098 204.743 82.4055C203.979 82.1011 203.597 81.5875 203.597 80.8646V70.4783C203.597 70.174 203.578 69.4511 203.54 68.3098C203.502 67.1684 203.464 65.7988 203.426 64.2009C203.387 62.565 203.33 60.91 203.254 59.236C203.216 57.524 203.177 55.9641 203.139 54.5565C203.101 53.1108 203.063 52.0075 203.025 51.2466C203.025 50.6759 202.872 50.3905 202.566 50.3905C202.337 50.3905 202.127 50.5427 201.936 50.8471L185.556 82.4625H183.838C182.769 79.8755 181.643 77.1933 180.459 74.416C179.275 71.6007 178.092 68.8044 176.908 66.0271C175.763 63.2498 174.636 60.6437 173.529 58.2088C172.46 55.7739 171.467 53.6434 170.551 51.8172C170.322 51.4368 170.112 51.2466 169.921 51.2466C169.73 51.2466 169.52 51.8553 169.291 53.0727C169.062 54.2902 168.814 55.8881 168.546 57.8664C168.317 59.8447 168.088 61.9943 167.859 64.315C167.63 66.6358 167.401 68.9375 167.172 71.2202C166.981 73.4649 166.809 75.4813 166.656 77.2694C166.542 79.0195 166.446 80.332 166.37 81.2071L162.074 82.6908L161.674 82.5196C162.781 76.927 163.812 71.3153 164.766 65.6847C165.759 60.054 166.637 54.4233 167.401 48.7927C167.439 48.6785 167.458 48.5644 167.458 48.4503C167.458 48.3361 167.458 48.222 167.458 48.1078C167.458 47.5752 167.324 47.1187 167.057 46.7382C166.79 46.3197 166.389 46.0344 165.854 45.8822L161.96 44.7979L162.074 43.5424L162.475 43.143H172.555C173.624 46.1866 174.885 49.4394 176.335 52.9015C177.786 56.3636 179.333 59.8828 180.975 63.459C182.655 66.9972 184.277 70.4593 185.843 73.8453C185.919 73.9595 186.015 74.1307 186.129 74.3589C186.244 74.5492 186.358 74.6443 186.473 74.6443C186.778 74.6443 187.007 74.4731 187.16 74.1307Z" fill="#ECEDE2"/>
<path d="M239.388 81.2071L239.273 82.5767H224.096V81.0929C225.509 80.8266 226.559 80.5793 227.246 80.351C227.933 80.0847 228.392 79.7613 228.621 79.3809C228.888 78.9624 229.041 78.4107 229.079 77.7259C229.117 77.0031 229.155 76.0519 229.193 74.8726V54.157C229.193 53.0537 229.174 51.9504 229.136 50.8471C229.136 49.7438 229.098 48.6595 229.022 47.5942C228.983 47.0236 228.85 46.6431 228.621 46.4529C228.43 46.2246 227.972 46.0344 227.246 45.8822C226.559 45.73 225.452 45.4827 223.924 45.1403V43.8848L224.325 43.5424H238.643L238.987 43.8848V45.0833L235.15 45.9393C234.386 46.1295 233.966 46.6241 233.89 47.423C233.737 48.5263 233.642 49.953 233.603 51.7031C233.603 53.4151 233.623 55.2033 233.661 57.0675C233.699 58.8936 233.718 60.5486 233.718 62.0323C233.718 63.9346 233.718 65.7798 233.718 67.5679C233.756 69.356 233.794 71.1251 233.833 72.8752C233.871 73.6741 233.871 74.6253 233.833 75.7286C233.794 76.7938 233.89 77.764 234.119 78.639C234.348 79.476 234.863 80.0086 235.665 80.2369C236.085 80.351 236.582 80.4842 237.154 80.6364C237.727 80.7886 238.243 80.9217 238.701 81.0359C239.159 81.15 239.388 81.2071 239.388 81.2071Z" fill="#ECEDE2"/>
<path d="M281.328 43.8278L285.909 42.9147L286.253 43.3712C285.871 49.8389 285.623 56.3636 285.508 62.9454C285.432 69.5272 285.394 76.0519 285.394 82.5196H283.332C282.683 81.7587 282.091 81.0739 281.557 80.4652C281.06 79.8565 280.373 79.0195 279.495 77.9542L270.388 66.6548C267.487 63.0405 264.871 59.9018 262.542 57.2387C260.251 54.5755 258.399 52.445 256.987 50.8471C256.91 50.733 256.815 50.6188 256.7 50.5047C256.586 50.3905 256.471 50.3335 256.357 50.3335C256.166 50.3335 256.051 50.4666 256.013 50.733C255.975 50.9612 255.956 51.1515 255.956 51.3036C255.956 53.1298 255.994 55.2413 256.07 57.6381C256.147 60.035 256.242 62.565 256.357 65.2281C256.509 67.8913 256.662 70.5925 256.815 73.3317C257.006 76.0329 257.177 78.62 257.33 81.0929L253.321 82.8049L252.806 82.2913C253.035 77.764 253.206 73.2366 253.321 68.7092C253.474 64.1819 253.55 59.6735 253.55 55.1842C253.55 53.9668 253.531 52.7493 253.493 51.5319C253.493 50.2764 253.493 49.04 253.493 47.8225C253.493 47.404 253.455 47.0806 253.378 46.8524C253.34 46.6241 252.996 46.3768 252.347 46.1105C251.698 45.8442 250.457 45.5018 248.625 45.0833L248.396 43.5424L248.854 43.143H258.132C260.041 45.6539 262.027 48.26 264.088 50.9612C266.15 53.6624 268.212 56.3446 270.274 59.0078C272.336 61.6329 274.34 64.1248 276.288 66.4836C278.235 68.8044 280.048 70.8588 281.728 72.6469C281.805 72.723 281.9 72.8181 282.015 72.9323C282.129 73.0464 282.244 73.1035 282.358 73.1035C282.511 73.1035 282.607 73.0464 282.645 72.9323C282.683 72.7801 282.702 72.685 282.702 72.6469C282.702 71.2012 282.683 69.6984 282.645 68.1386C282.607 66.5407 282.53 64.6955 282.416 62.603C282.339 60.4725 282.206 57.9044 282.015 54.8989C281.862 51.8553 281.633 48.1649 281.328 43.8278Z" fill="#ECEDE2"/>
<path d="M331.58 83.0903C330.626 83.0903 329.919 82.5957 329.461 81.6065C329.003 80.5793 328.602 79.438 328.258 78.1825L325.165 67.4538C325.013 67.1114 324.803 66.9402 324.536 66.9402H311.649C311.42 66.9402 311.229 67.0923 311.076 67.3967L304.375 81.5495L299.164 82.6337L298.992 82.0631C302.39 76.3563 305.712 70.5925 308.957 64.7716C312.241 58.9507 315.391 53.0727 318.407 47.1377C318.445 47.0236 318.465 46.8904 318.465 46.7382C318.465 46.6621 318.407 46.548 318.293 46.3958C318.216 46.2436 318.045 46.1485 317.777 46.1105L312.623 45.2545V43.7136H323.734C324.039 45.2735 324.478 47.2518 325.051 49.6487C325.662 52.0075 326.33 54.4994 327.056 57.1245C327.781 59.7116 328.449 62.1465 329.06 64.4292C329.709 66.7499 330.416 69.1658 331.179 71.6768C331.981 74.1877 332.897 76.2992 333.928 78.0113C334.31 78.62 334.826 79.0575 335.475 79.3238C336.124 79.5901 336.83 79.7233 337.594 79.7233C338.014 79.7233 338.434 79.7043 338.854 79.6662C339.274 79.6282 339.675 79.5901 340.056 79.5521L340.114 81.0359L334.157 82.7479C333.317 82.9762 332.458 83.0903 331.58 83.0903ZM319.782 49.6487C319.553 49.6487 319.438 49.7248 319.438 49.8769L312.795 63.8014C312.756 63.8395 312.737 63.9346 312.737 64.0868C312.737 64.2009 312.737 64.277 312.737 64.315C312.737 64.5814 312.871 64.7145 313.138 64.7145H323.906C324.173 64.7145 324.306 64.5814 324.306 64.315C324.306 64.315 324.287 64.2389 324.249 64.0868C324.211 63.9346 324.192 63.8395 324.192 63.8014L320.183 49.8769C320.106 49.7248 319.973 49.6487 319.782 49.6487Z" fill="#ECEDE2"/>
<path d="M41.8853 0.292266C40.6844 0.099015 39.4674 -5.36008e-08 38.2368 0C17.1192 9.19769e-07 -1.57482e-06 29.1015 0 65C1.57482e-06 100.898 17.1192 130 38.2368 130C39.4674 130 40.6845 129.901 41.8854 129.708C25.8601 126.585 13.3229 98.8065 13.3229 65C13.3229 31.1935 25.8601 3.4151 41.8853 0.292266Z" fill="#ECEDE2"/>
<path d="M55.0236 12.3028C54.0456 12.1454 53.0545 12.0647 52.0523 12.0647C34.8544 12.0648 20.9127 35.7647 20.9127 65C20.9127 94.2353 34.8544 117.935 52.0523 117.935C53.0545 117.935 54.0457 117.855 55.0236 117.697C41.9728 115.154 31.7627 92.5316 31.7627 65C31.7627 37.4684 41.9729 14.846 55.0236 12.3028Z" fill="#ECEDE2"/>
<path d="M68.613 22.8235C67.8303 22.6976 67.037 22.6331 66.2349 22.6331C52.4705 22.6331 41.3122 41.6014 41.3122 65C41.3122 88.3986 52.4705 107.367 66.2349 107.367C67.037 107.367 67.8303 107.303 68.613 107.177C58.1678 105.141 49.9961 87.035 49.9961 65C49.9961 42.965 58.1678 24.8589 68.613 22.8235Z" fill="#ECEDE2"/>
<path d="M373.115 0.29228C374.316 0.0990289 375.533 1.38789e-05 376.763 1.39325e-05C397.881 1.48523e-05 415 29.1015 415 65C415 100.899 397.881 130 376.763 130C375.533 130 374.316 129.901 373.115 129.708C389.14 126.585 401.677 98.8065 401.677 65C401.677 31.1935 389.14 3.41511 373.115 0.29228Z" fill="#ECEDE2"/>
<path d="M359.976 12.3028C360.954 12.1454 361.945 12.0648 362.948 12.0648C380.146 12.0648 394.087 35.7647 394.087 65C394.087 94.2353 380.146 117.935 362.948 117.935C361.945 117.935 360.954 117.855 359.976 117.697C373.027 115.154 383.237 92.5316 383.237 65C383.237 37.4684 373.027 14.846 359.976 12.3028Z" fill="#ECEDE2"/>
<path d="M346.387 22.8235C347.17 22.6976 347.963 22.6331 348.765 22.6331C362.529 22.6331 373.688 41.6014 373.688 65C373.688 88.3986 362.529 107.367 348.765 107.367C347.963 107.367 347.17 107.303 346.387 107.177C356.832 105.141 365.004 87.0351 365.004 65C365.004 42.965 356.832 24.859 346.387 22.8235Z" fill="#ECEDE2"/>
</svg>
