<svg width="60" height="57" viewBox="0 0 60 57" fill="none" xmlns="http://www.w3.org/2000/svg">
<path d="M2.22223 42C1.5926 42 1.06519 41.784 0.640008 41.352C0.214823 40.92 0.00148914 40.386 7.66282e-06 39.75C-0.00147382 39.114 0.21186 38.58 0.640008 38.148C1.06816 37.716 1.59556 37.5 2.22223 37.5H37.7778C38.4074 37.5 38.9355 37.716 39.3622 38.148C39.7889 38.58 40.0015 39.114 40 39.75C39.9985 40.386 39.7852 40.9207 39.36 41.3542C38.9348 41.7877 38.4074 42.003 37.7778 42H2.22223ZM2.22223 30.75C1.5926 30.75 1.06519 30.534 0.640008 30.102C0.214823 29.67 0.00148914 29.136 7.66282e-06 28.5C-0.00147382 27.864 0.21186 27.33 0.640008 26.898C1.06816 26.466 1.59556 26.25 2.22223 26.25H37.7778C38.4074 26.25 38.9355 26.466 39.3622 26.898C39.7889 27.33 40.0015 27.864 40 28.5C39.9985 29.136 39.7852 29.6707 39.36 30.1042C38.9348 30.5377 38.4074 30.753 37.7778 30.75H2.22223ZM2.22223 19.5C1.5926 19.5 1.06519 19.284 0.640008 18.852C0.214823 18.42 0.00148914 17.886 7.66282e-06 17.25C-0.00147382 16.614 0.21186 16.08 0.640008 15.648C1.06816 15.216 1.59556 15 2.22223 15H37.7778C38.4074 15 38.9355 15.216 39.3622 15.648C39.7889 16.08 40.0015 16.614 40 17.25C39.9985 17.886 39.7852 18.4207 39.36 18.8542C38.9348 19.2877 38.4074 19.503 37.7778 19.5H2.22223Z" fill="#ECEDE2"/>
</svg>
