<svg width="38" height="38" viewBox="0 0 38 38" fill="none" xmlns="http://www.w3.org/2000/svg">
<path d="M37.4016 16.7662C37.2292 16.0222 36.8964 15.3247 36.4266 14.7225C35.9499 14.1248 35.3484 13.6385 34.6641 13.2975C34.1245 13.032 33.5389 12.8729 32.9391 12.8287C32.6335 9.54767 31.1793 6.47988 28.8329 4.16621C26.1611 1.49842 22.5398 0 18.7641 0C14.9885 0 11.3671 1.49842 8.69537 4.16621C6.34897 6.47988 4.89476 9.54767 4.58912 12.8287C3.98938 12.8729 3.40373 13.032 2.86412 13.2975C2.17647 13.6332 1.57387 14.1204 1.10162 14.7225C0.62831 15.3234 0.295155 16.0224 0.126474 16.7685C-0.0422071 17.5146 -0.0421575 18.2889 0.12662 19.035L3.07037 31.0912C3.57704 32.9385 4.67796 34.5675 6.20301 35.7266C7.72807 36.8856 9.59237 37.5101 11.5079 37.5037H25.9641C27.8862 37.5057 29.7555 36.8753 31.2837 35.7096C32.8119 34.544 33.9141 32.9079 34.4204 31.0537L37.3454 19.035C37.5329 18.2925 37.5516 17.5162 37.4016 16.7662ZM12.8391 28.8037C12.8391 29.1767 12.691 29.5344 12.4272 29.7981C12.1635 30.0618 11.8058 30.21 11.4329 30.21C11.0599 30.21 10.7022 30.0618 10.4385 29.7981C10.1748 29.5344 10.0266 29.1767 10.0266 28.8037V21.4162C10.0266 21.0433 10.1748 20.6856 10.4385 20.4218C10.7022 20.1581 11.0599 20.01 11.4329 20.01C11.8058 20.01 12.1635 20.1581 12.4272 20.4218C12.691 20.6856 12.8391 21.0433 12.8391 21.4162V28.8037ZM20.1704 28.8037C20.1704 28.9884 20.134 29.1712 20.0633 29.3419C19.9927 29.5125 19.8891 29.6675 19.7585 29.7981C19.6279 29.9287 19.4729 30.0322 19.3023 30.1029C19.1317 30.1736 18.9488 30.21 18.7641 30.21C18.5794 30.21 18.3966 30.1736 18.226 30.1029C18.0554 30.0322 17.9003 29.9287 17.7698 29.7981C17.6392 29.6675 17.5356 29.5125 17.4649 29.3419C17.3942 29.1712 17.3579 28.9884 17.3579 28.8037V21.4162C17.3579 21.0433 17.506 20.6856 17.7698 20.4218C18.0335 20.1581 18.3912 20.01 18.7641 20.01C19.1371 20.01 19.4948 20.1581 19.7585 20.4218C20.0222 20.6856 20.1704 21.0433 20.1704 21.4162V28.8037ZM27.5016 28.8037C27.5016 29.1767 27.3535 29.5344 27.0897 29.7981C26.826 30.0618 26.4683 30.21 26.0954 30.21C25.7224 30.21 25.3647 30.0618 25.101 29.7981C24.8373 29.5344 24.6891 29.1767 24.6891 28.8037V21.4162C24.6891 21.0433 24.8373 20.6856 25.101 20.4218C25.3647 20.1581 25.7224 20.01 26.0954 20.01C26.4683 20.01 26.826 20.1581 27.0897 20.4218C27.3535 20.6856 27.5016 21.0433 27.5016 21.4162V28.8037ZM7.42037 12.7912C7.72874 10.2743 8.8784 7.9353 10.6829 6.15371C12.8297 4.01718 15.7353 2.81775 18.7641 2.81775C21.7929 2.81775 24.6985 4.01718 26.8454 6.15371C28.6498 7.9353 29.7995 10.2743 30.1079 12.7912H7.42037Z" fill="#ECEDE2"/>
</svg>
