<svg width="40" height="45" viewBox="0 0 40 45" fill="none" xmlns="http://www.w3.org/2000/svg">
<g clip-path="url(#clip0_63_2812)">
<path d="M29.6398 16.2032C32.557 18.2739 36.1308 19.4924 39.9907 19.4924V12.117C39.2601 12.1173 38.5315 12.0416 37.8169 11.8911V17.6965C33.9574 17.6965 30.384 16.4783 27.4662 14.4077V29.4588C27.4662 36.9882 21.3193 43.0914 13.7375 43.0914C10.9085 43.0914 8.27898 42.2422 6.09473 40.7856C8.58775 43.3169 12.0644 44.8871 15.9107 44.8871C23.4931 44.8871 29.6401 38.7839 29.6401 31.2541V16.2032H29.6398ZM32.3215 8.76234C30.8306 7.14498 29.8516 5.05481 29.6398 2.74398V1.79541H27.5799C28.0984 4.73236 29.8672 7.2415 32.3215 8.76234ZM10.8902 35.0079C10.0572 33.9235 9.60693 32.5967 9.60905 31.2325C9.60905 27.789 12.4205 24.9968 15.8893 24.9968C16.5356 24.9964 17.1781 25.095 17.7942 25.289V17.7487C17.0742 17.6508 16.3477 17.609 15.6214 17.6244V23.4933C15.005 23.2993 14.3621 23.2008 13.7155 23.2013C10.2469 23.2013 7.43558 25.9932 7.43558 29.4372C7.43558 31.8725 8.84077 33.9808 10.8902 35.0079Z" fill="#FF004F"/>
<path d="M27.4663 14.4075C30.3843 16.4781 33.9574 17.6964 37.817 17.6964V11.8909C35.6626 11.4352 33.7554 10.3173 32.3215 8.76234C29.867 7.24134 28.0986 4.7322 27.58 1.79541H22.1693V31.2538C22.157 34.6881 19.3503 37.4688 15.8891 37.4688C13.8496 37.4688 12.0376 36.5034 10.8901 35.0077C8.84093 33.9808 7.43557 31.8723 7.43557 29.4374C7.43557 25.9936 10.2469 23.2014 13.7155 23.2014C14.38 23.2014 15.0206 23.3042 15.6214 23.4935V17.6245C8.17261 17.7774 2.18213 23.821 2.18213 31.254C2.18213 34.9644 3.67385 38.3281 6.09504 40.7859C8.27929 42.2422 10.9087 43.0918 13.7378 43.0918C21.3198 43.0918 27.4665 36.988 27.4665 29.4588L27.4663 14.4075Z" fill="black"/>
<path d="M37.8168 11.8909V10.3214C35.874 10.3242 33.9697 9.784 32.3213 8.76243C33.7804 10.3486 35.7017 11.4425 37.8168 11.8912M27.5797 1.79534C27.5303 1.51473 27.4923 1.23224 27.466 0.948569V0H19.995V29.4587C19.9831 32.8927 17.1765 35.6734 13.7151 35.6734C12.7338 35.6748 11.766 35.4469 10.8897 35.0081C12.0372 36.5035 13.8493 37.4687 15.8887 37.4687C19.3498 37.4687 22.1568 34.6883 22.1689 31.254V1.7955L27.5797 1.79534ZM15.6215 17.6245V15.9534C14.9972 15.8688 14.3678 15.8263 13.7378 15.8265C6.15497 15.8265 0.00830078 21.9301 0.00830078 29.4587C0.00830078 34.1789 2.42402 38.3388 6.09499 40.7857C3.67381 38.3281 2.18209 34.9642 2.18209 31.2539C2.18209 23.8211 8.17241 17.7773 15.6215 17.6245Z" fill="#00F2EA"/>
</g>
<defs>
<clipPath id="clip0_63_2812">
<rect width="40" height="45" fill="white"/>
</clipPath>
</defs>
</svg>
