<svg width="147" height="26" viewBox="0 0 147 26" fill="none" xmlns="http://www.w3.org/2000/svg">
<path d="M51.0508 24.1294L44.2539 19.189L49.043 17.9478L51.0508 24.1294ZM46.4385 9.93311L46.4941 10.106H55.6094L48.3838 15.356L43.5322 18.8784L36.2979 24.1284L39.0664 15.6362L39.123 15.4634L38.9756 15.356L31.7422 10.0962L40.6738 10.1079H40.8555L40.9121 9.93506L43.6797 1.43213L46.4385 9.93311Z" fill="#00B67A" stroke="black" stroke-width="0.5"/>
<path d="M110.7 24.1294L103.903 19.189L108.692 17.9478L110.7 24.1294ZM106.087 9.93311L106.143 10.106H115.258L108.033 15.356L103.181 18.8784L95.9468 24.1284L98.7153 15.6362L98.772 15.4634L98.6245 15.356L91.3911 10.0962L100.323 10.1079H100.504L100.561 9.93506L103.329 1.43213L106.087 9.93311Z" fill="#00B67A" stroke="black" stroke-width="0.5"/>
<path d="M141.67 24.1294L134.874 19.189L139.663 17.9478L141.67 24.1294ZM137.058 9.93311L137.114 10.106H146.229L139.003 15.356L134.152 18.8784L126.917 24.1284L129.686 15.6362L129.743 15.4634L129.595 15.356L122.362 10.0962L131.293 10.1079H131.475L131.532 9.93506L134.299 1.43213L137.058 9.93311Z" fill="#00B67A" stroke="black" stroke-width="0.5"/>
<path d="M80.8755 24.1294L74.0786 19.189L78.8677 17.9478L80.8755 24.1294ZM76.2632 9.93311L76.3188 10.106H85.4341L78.2085 15.356L73.3569 18.8784L66.1226 24.1284L68.8911 15.6362L68.9478 15.4634L68.8003 15.356L61.5669 10.0962L70.4985 10.1079H70.6802L70.7368 9.93506L73.5044 1.43213L76.2632 9.93311Z" fill="#00B67A" stroke="black" stroke-width="0.5"/>
<path d="M20.0791 24.1294L13.2822 19.189L18.0713 17.9478L20.0791 24.1294ZM15.4668 9.93311L15.5225 10.106H24.6377L17.4121 15.356L12.5605 18.8784L5.32617 24.1284L8.09473 15.6362L8.15137 15.4634L8.00391 15.356L0.770508 10.0962L9.70215 10.1079H9.88379L9.94043 9.93506L12.708 1.43213L15.4668 9.93311Z" fill="#00B67A" stroke="black" stroke-width="0.5"/>
</svg>
