<svg width="160" height="160" viewBox="0 0 160 160" fill="none" xmlns="http://www.w3.org/2000/svg">
<g clip-path="url(#clip0_17_662)">
<path d="M35.04 0H124.96C144.312 0 160 15.6875 160 35.04V124.96C160 144.312 144.312 160 124.96 160H35.04C15.6875 160 0 144.312 0 124.96V35.04C0 15.6875 15.6875 0 35.04 0Z" fill="url(#paint0_linear_17_662)"/>
<path d="M51.2762 116.131L51.2912 116.136L45.8205 125.611C43.8237 129.07 39.4012 130.255 35.9424 128.258C32.4837 126.261 31.2987 121.839 33.2955 118.38L37.3255 111.4L37.7124 110.73C38.403 109.738 40.1074 108.024 43.5168 108.346C43.5168 108.346 51.5399 109.217 52.1205 113.387C52.1205 113.387 52.1993 114.759 51.2762 116.131ZM128.866 91.9313H111.807C110.645 91.8531 110.138 91.4381 109.938 91.1969L109.926 91.175L91.6649 59.5463L91.6412 59.5619L90.5462 57.9919C88.7512 55.2469 85.9012 62.2669 85.9012 62.2669C82.498 70.0894 86.3843 78.9825 87.7387 81.6707L113.102 125.602C115.099 129.06 119.521 130.246 122.981 128.248C126.439 126.251 127.624 121.829 125.627 118.37L119.285 107.385C119.162 107.119 118.948 106.396 120.249 106.393H128.866C132.859 106.393 136.097 103.156 136.097 99.1619C136.097 95.1682 132.859 91.9313 128.866 91.9313ZM95.7318 101.761C95.7318 101.761 96.6424 106.393 93.1193 106.393H30.0574C26.0637 106.393 22.8262 103.155 22.8262 99.1613C22.8262 95.1675 26.0637 91.93 30.0574 91.93H46.2699C48.8874 91.7788 49.5074 90.2675 49.5074 90.2675L49.5224 90.275L70.6849 53.62L70.6787 53.6188C71.0643 52.9107 70.743 52.2413 70.6874 52.1357L63.6981 40.03C61.7012 36.5719 62.8862 32.1488 66.3449 30.1525C69.8037 28.1563 74.2262 29.34 76.223 32.7988L79.4643 38.4131L82.6999 32.8088C84.6968 29.3507 89.1193 28.165 92.578 30.1625C96.0368 32.16 97.2218 36.5813 95.2249 40.04L65.7762 91.0463C65.6474 91.3569 65.608 91.8444 66.5662 91.93H84.1687L84.1724 92.1019C84.1724 92.1019 94.3462 92.26 95.7318 101.761Z" fill="white"/>
</g>
<defs>
<linearGradient id="paint0_linear_17_662" x1="8000" y1="0" x2="8000" y2="16000" gradientUnits="userSpaceOnUse">
<stop stop-color="#17C9FB"/>
<stop offset="1" stop-color="#1A74E8"/>
</linearGradient>
<clipPath id="clip0_17_662">
<rect width="160" height="160" fill="white"/>
</clipPath>
</defs>
</svg>
