<svg width="145" height="160" viewBox="0 0 145 160" fill="none" xmlns="http://www.w3.org/2000/svg">
<g clip-path="url(#clip0_17_665)">
<path d="M67.6244 76.2776L0.631836 146.466C1.38416 149.132 2.7361 151.59 4.58431 153.654C6.43253 155.718 8.72809 157.331 11.2955 158.372C13.8629 159.412 16.6343 159.852 19.3976 159.657C22.161 159.462 24.8432 158.638 27.2393 157.248L102.619 114.317L67.6244 76.2776Z" fill="#EA4335"/>
<path d="M135.365 64.3471L102.769 45.6763L66.0771 77.8742L102.918 114.216L135.266 95.7455C138.132 94.245 140.532 91.9887 142.207 89.2213C143.882 86.4538 144.767 83.2808 144.767 80.046C144.767 76.8113 143.882 73.6382 142.207 70.8708C140.532 68.1033 138.132 65.8471 135.266 64.3465L135.365 64.3471Z" fill="#FBBC04"/>
<path d="M0.631695 13.2788C0.226998 14.7759 0.0254282 16.3205 0.0324015 17.8713V141.872C0.0363976 143.423 0.237782 144.966 0.631695 146.466L69.9207 78.0749L0.631695 13.2788Z" fill="#4285F4"/>
<path d="M68.1236 79.8723L102.768 45.6769L27.4892 2.5459C24.6569 0.887218 21.4355 0.00877776 18.1533 3.46744e-05C10.0079 -0.0157957 2.84696 5.39028 0.631836 13.2292L68.1236 79.8723Z" fill="#34A853"/>
</g>
<defs>
<clipPath id="clip0_17_665">
<rect width="144.8" height="160" fill="white"/>
</clipPath>
</defs>
</svg>
