<svg width="126" height="126" viewBox="0 0 126 126" fill="none" xmlns="http://www.w3.org/2000/svg">
<circle cx="63" cy="63" r="36" fill="#5E1F1F"/>
<g clip-path="url(#clip0_27_3198)">
<path fill-rule="evenodd" clip-rule="evenodd" d="M59.7739 50.3653C60.6374 49.4911 61.8078 49 63.0281 49C64.2484 49 65.4188 49.4911 66.2822 50.3653L83.6519 67.9688C84.0794 68.4024 84.4186 68.9172 84.6499 69.4837C84.8812 70.0502 85.0001 70.6574 85 71.2705C84.9999 71.8837 84.8806 72.4908 84.649 73.0572C84.4175 73.6236 84.0781 74.1382 83.6504 74.5716C83.2226 75.0051 82.7149 75.3489 82.1561 75.5834C81.5973 75.8179 80.9984 75.9385 80.3936 75.9384C79.7888 75.9382 79.19 75.8173 78.6313 75.5825C78.0726 75.3478 77.565 75.0037 77.1375 74.5701L63.0281 60.2688L48.9186 74.5732C48.4941 75.0193 47.9861 75.3752 47.4244 75.6201C46.8627 75.8651 46.2585 75.9941 45.6471 75.9998C45.0356 76.0055 44.4292 75.8876 43.8632 75.6532C43.2972 75.4187 42.7829 75.0723 42.3503 74.6342C41.9177 74.196 41.5755 73.675 41.3437 73.1013C41.1119 72.5277 40.9951 71.913 41.0002 71.2931C41.0052 70.6732 41.1319 70.0606 41.373 69.4909C41.6141 68.9212 41.9646 68.4059 42.4042 67.975L59.7739 50.3653Z" fill="#F3ECE3"/>
</g>
<defs>
<clipPath id="clip0_27_3198">
<rect width="126" height="126" fill="white"/>
</clipPath>
</defs>
</svg>
